<?xml version="1.0" standalone="no"?>
<!DOCTYPE svg PUBLIC "-//W3C//DTD SVG 20010904//EN"
 "http://www.w3.org/TR/2001/REC-SVG-20010904/DTD/svg10.dtd">
<svg version="1.0" xmlns="http://www.w3.org/2000/svg"
 width="980.000000pt" height="980.000000pt" viewBox="0 0 980.000000 980.000000"
 preserveAspectRatio="xMidYMid meet">
<metadata>
Created by potrace 1.14, written by Peter Selinger 2001-2017
</metadata>
<g transform="translate(0.000000,980.000000) scale(0.100000,-0.100000)"
fill="#000000" stroke="none">
<path d="M2828 8816 c-42 -12 -102 -38 -133 -57 -77 -46 -2550 -2516 -2606
-2602 -77 -119 -104 -274 -74 -419 16 -77 35 -121 82 -193 18 -27 1033 -1049
2255 -2271 2098 -2095 2227 -2222 2290 -2253 186 -89 400 -77 562 31 68 44
4454 4433 4499 4501 114 171 120 398 15 587 -24 42 -322 346 -1302 1327 -1390
1390 -1303 1309 -1466 1354 -61 17 -181 18 -2055 18 l-1990 0 -77 -23z m3030
-825 c8 -1 27 -14 43 -30 22 -22 29 -39 29 -67 0 -37 -15 -54 -492 -531 -530
-530 -526 -527 -585 -487 -48 31 -983 973 -985 991 0 10 -2 25 -3 33 -2 19 21
66 37 77 7 4 49 10 93 13 59 4 1773 4 1863 1z m-2303 -1028 c382 -382 696
-700 697 -706 9 -73 60 -17 -877 -956 -939 -941 -902 -907 -965 -875 -14 7
-334 322 -712 701 -660 660 -688 690 -688 725 0 24 8 46 25 66 13 16 410 414
880 885 868 868 871 871 927 859 10 -3 330 -317 713 -699z m4347 -180 c586
-586 871 -878 878 -899 7 -20 7 -40 1 -55 -8 -22 -3790 -3813 -3835 -3845 -11
-8 -36 -14 -55 -14 -33 0 -87 52 -913 878 -936 936 -908 905 -875 968 22 41
3817 3831 3847 3842 14 5 38 6 54 1 21 -6 303 -282 898 -876z"/>
<path d="M4770 4050 c-138 -51 -232 -150 -270 -285 -69 -245 108 -499 360
-519 125 -9 235 30 323 115 270 263 76 720 -300 708 -37 -1 -88 -10 -113 -19z"/>
</g>
</svg>
