<svg xmlns="http://www.w3.org/2000/svg" width="425.567" height="104.129" viewBox="0 0 425.567 104.129">
  <g id="Group_3596" data-name="Group 3596" transform="translate(0)">
    <g id="Group_3590" data-name="Group 3590" transform="translate(0)">
      <g id="Group_4" data-name="Group 4" transform="translate(29.555)">
        <path id="Path_26" data-name="Path 26" d="M563.88-1556.984H553.561a1.5,1.5,0,0,0-1.063.44l-6.534,6.533a1.5,1.5,0,0,0,0,2.125l11.694,11.694a1.5,1.5,0,0,0,2.125,0l11.693-11.694a1.5,1.5,0,0,0,0-2.125l-6.534-6.533A1.5,1.5,0,0,0,563.88-1556.984Zm5.244,8.22-10.218,10.219a.261.261,0,0,1-.37,0l-4.607-4.607a.261.261,0,0,1,0-.369l10.218-10.219a.262.262,0,0,1,.37,0l4.607,4.606A.261.261,0,0,1,569.124-1548.763Zm-7.693-5.49-2.525,2.526a.262.262,0,0,1-.369,0l-2.526-2.526a.261.261,0,0,1,.185-.446h5.052A.261.261,0,0,1,561.431-1554.253Zm-4.51,4.51-4.607,4.607a.261.261,0,0,1-.369,0l-3.628-3.627a.261.261,0,0,1,0-.369l4.607-4.607a.261.261,0,0,1,.369,0l3.627,3.627A.262.262,0,0,1,556.921-1549.743Z" transform="translate(-545.524 1556.984)" fill="#fff"/>
        <ellipse id="Ellipse_1" data-name="Ellipse 1" cx="1.118" cy="1.118" rx="1.118" ry="1.118" transform="translate(12.079 12.849)" fill="#fff"/>
      </g>
      <g id="Group_3584" data-name="Group 3584" transform="translate(189.18 34.71) rotate(180)">
        <path id="Path_26-2" data-name="Path 26" d="M18.356,0H8.037A1.5,1.5,0,0,0,6.974.44L.44,6.973A1.5,1.5,0,0,0,.44,9.1L12.134,20.792a1.5,1.5,0,0,0,2.126,0L25.953,9.1a1.5,1.5,0,0,0,0-2.126L19.419.44A1.5,1.5,0,0,0,18.356,0ZM23.6,8.221,13.382,18.44a.261.261,0,0,1-.369,0L8.4,13.833a.261.261,0,0,1,0-.369L18.623,3.245a.261.261,0,0,1,.369,0L23.6,7.851A.261.261,0,0,1,23.6,8.221Zm-7.693-5.49L13.382,5.256a.261.261,0,0,1-.369,0L10.486,2.731a.261.261,0,0,1,.185-.446h5.052A.261.261,0,0,1,15.907,2.731ZM11.4,7.241,6.79,11.848a.261.261,0,0,1-.369,0L2.793,8.221a.261.261,0,0,1,0-.369L7.4,3.245a.261.261,0,0,1,.369,0L11.4,6.872A.261.261,0,0,1,11.4,7.241Z" transform="translate(0 0)" fill="#fff"/>
        <ellipse id="Ellipse_1-2" data-name="Ellipse 1" cx="1.118" cy="1.118" rx="1.118" ry="1.118" transform="translate(12.079 12.849)" fill="#fff"/>
      </g>
      <g id="Group_3582" data-name="Group 3582">
        <path id="Path_26-3" data-name="Path 26" d="M563.88-1556.984H553.561a1.5,1.5,0,0,0-1.063.44l-6.534,6.533a1.5,1.5,0,0,0,0,2.125l11.694,11.694a1.5,1.5,0,0,0,2.125,0l11.693-11.694a1.5,1.5,0,0,0,0-2.125l-6.534-6.533A1.5,1.5,0,0,0,563.88-1556.984Zm5.244,8.22-10.218,10.219a.261.261,0,0,1-.37,0l-4.607-4.607a.261.261,0,0,1,0-.369l10.218-10.219a.262.262,0,0,1,.37,0l4.607,4.606A.261.261,0,0,1,569.124-1548.763Zm-7.693-5.49-2.525,2.526a.262.262,0,0,1-.369,0l-2.526-2.526a.261.261,0,0,1,.185-.446h5.052A.261.261,0,0,1,561.431-1554.253Zm-4.51,4.51-4.607,4.607a.261.261,0,0,1-.369,0l-3.628-3.627a.261.261,0,0,1,0-.369l4.607-4.607a.261.261,0,0,1,.369,0l3.627,3.627A.262.262,0,0,1,556.921-1549.743Z" transform="translate(-545.524 1556.984)" fill="#fff"/>
        <ellipse id="Ellipse_1-3" data-name="Ellipse 1" cx="1.118" cy="1.118" rx="1.118" ry="1.118" transform="translate(12.079 12.849)" fill="#fff"/>
      </g>
      <g id="Group_3583" data-name="Group 3583" transform="translate(218.735 34.71) rotate(180)">
        <path id="Path_26-4" data-name="Path 26" d="M18.356,0H8.037A1.5,1.5,0,0,0,6.974.44L.44,6.973A1.5,1.5,0,0,0,.44,9.1L12.134,20.792a1.5,1.5,0,0,0,2.126,0L25.953,9.1a1.5,1.5,0,0,0,0-2.126L19.419.44A1.5,1.5,0,0,0,18.356,0ZM23.6,8.221,13.382,18.44a.261.261,0,0,1-.369,0L8.4,13.833a.261.261,0,0,1,0-.369L18.623,3.245a.261.261,0,0,1,.369,0L23.6,7.851A.261.261,0,0,1,23.6,8.221Zm-7.693-5.49L13.382,5.256a.261.261,0,0,1-.369,0L10.486,2.731a.261.261,0,0,1,.185-.446h5.052A.261.261,0,0,1,15.907,2.731ZM11.4,7.241,6.79,11.848a.261.261,0,0,1-.369,0L2.793,8.221a.261.261,0,0,1,0-.369L7.4,3.245a.261.261,0,0,1,.369,0L11.4,6.872A.261.261,0,0,1,11.4,7.241Z" transform="translate(0 0)" fill="#fff"/>
        <ellipse id="Ellipse_1-4" data-name="Ellipse 1" cx="1.118" cy="1.118" rx="1.118" ry="1.118" transform="translate(12.079 12.849)" fill="#fff"/>
      </g>
      <g id="Group_3577" data-name="Group 3577" transform="translate(59.109)">
        <path id="Path_26-5" data-name="Path 26" d="M563.88-1556.984H553.561a1.5,1.5,0,0,0-1.063.44l-6.534,6.533a1.5,1.5,0,0,0,0,2.125l11.694,11.694a1.5,1.5,0,0,0,2.125,0l11.693-11.694a1.5,1.5,0,0,0,0-2.125l-6.534-6.533A1.5,1.5,0,0,0,563.88-1556.984Zm5.244,8.22-10.218,10.219a.261.261,0,0,1-.37,0l-4.607-4.607a.261.261,0,0,1,0-.369l10.218-10.219a.262.262,0,0,1,.37,0l4.607,4.606A.261.261,0,0,1,569.124-1548.763Zm-7.693-5.49-2.525,2.526a.262.262,0,0,1-.369,0l-2.526-2.526a.261.261,0,0,1,.185-.446h5.052A.261.261,0,0,1,561.431-1554.253Zm-4.51,4.51-4.607,4.607a.261.261,0,0,1-.369,0l-3.628-3.627a.261.261,0,0,1,0-.369l4.607-4.607a.261.261,0,0,1,.369,0l3.627,3.627A.262.262,0,0,1,556.921-1549.743Z" transform="translate(-545.524 1556.984)" fill="#fff"/>
        <ellipse id="Ellipse_1-5" data-name="Ellipse 1" cx="1.118" cy="1.118" rx="1.118" ry="1.118" transform="translate(12.079 12.849)" fill="#fff"/>
      </g>
      <g id="Group_3585" data-name="Group 3585" transform="translate(159.625 34.71) rotate(180)">
        <path id="Path_26-6" data-name="Path 26" d="M18.356,0H8.037A1.5,1.5,0,0,0,6.974.44L.44,6.973A1.5,1.5,0,0,0,.44,9.1L12.134,20.792a1.5,1.5,0,0,0,2.126,0L25.953,9.1a1.5,1.5,0,0,0,0-2.126L19.419.44A1.5,1.5,0,0,0,18.356,0ZM23.6,8.221,13.382,18.44a.261.261,0,0,1-.369,0L8.4,13.833a.261.261,0,0,1,0-.369L18.623,3.245a.261.261,0,0,1,.369,0L23.6,7.851A.261.261,0,0,1,23.6,8.221Zm-7.693-5.49L13.382,5.256a.261.261,0,0,1-.369,0L10.486,2.731a.261.261,0,0,1,.185-.446h5.052A.261.261,0,0,1,15.907,2.731ZM11.4,7.241,6.79,11.848a.261.261,0,0,1-.369,0L2.793,8.221a.261.261,0,0,1,0-.369L7.4,3.245a.261.261,0,0,1,.369,0L11.4,6.872A.261.261,0,0,1,11.4,7.241Z" transform="translate(0 0)" fill="#fff"/>
        <ellipse id="Ellipse_1-6" data-name="Ellipse 1" cx="1.118" cy="1.118" rx="1.118" ry="1.118" transform="translate(12.079 12.849)" fill="#fff"/>
      </g>
      <g id="Group_3578" data-name="Group 3578" transform="translate(88.664)">
        <path id="Path_26-7" data-name="Path 26" d="M563.88-1556.984H553.561a1.5,1.5,0,0,0-1.063.44l-6.534,6.533a1.5,1.5,0,0,0,0,2.125l11.694,11.694a1.5,1.5,0,0,0,2.125,0l11.693-11.694a1.5,1.5,0,0,0,0-2.125l-6.534-6.533A1.5,1.5,0,0,0,563.88-1556.984Zm5.244,8.22-10.218,10.219a.261.261,0,0,1-.37,0l-4.607-4.607a.261.261,0,0,1,0-.369l10.218-10.219a.262.262,0,0,1,.37,0l4.607,4.606A.261.261,0,0,1,569.124-1548.763Zm-7.693-5.49-2.525,2.526a.262.262,0,0,1-.369,0l-2.526-2.526a.261.261,0,0,1,.185-.446h5.052A.261.261,0,0,1,561.431-1554.253Zm-4.51,4.51-4.607,4.607a.261.261,0,0,1-.369,0l-3.628-3.627a.261.261,0,0,1,0-.369l4.607-4.607a.261.261,0,0,1,.369,0l3.627,3.627A.262.262,0,0,1,556.921-1549.743Z" transform="translate(-545.524 1556.984)" fill="#fff"/>
        <ellipse id="Ellipse_1-7" data-name="Ellipse 1" cx="1.118" cy="1.118" rx="1.118" ry="1.118" transform="translate(12.079 12.849)" fill="#fff"/>
      </g>
      <g id="Group_3586" data-name="Group 3586" transform="translate(130.071 34.71) rotate(180)">
        <path id="Path_26-8" data-name="Path 26" d="M18.356,0H8.037A1.5,1.5,0,0,0,6.974.44L.44,6.973A1.5,1.5,0,0,0,.44,9.1L12.134,20.792a1.5,1.5,0,0,0,2.126,0L25.953,9.1a1.5,1.5,0,0,0,0-2.126L19.419.44A1.5,1.5,0,0,0,18.356,0ZM23.6,8.221,13.382,18.44a.261.261,0,0,1-.369,0L8.4,13.833a.261.261,0,0,1,0-.369L18.623,3.245a.261.261,0,0,1,.369,0L23.6,7.851A.261.261,0,0,1,23.6,8.221Zm-7.693-5.49L13.382,5.256a.261.261,0,0,1-.369,0L10.486,2.731a.261.261,0,0,1,.185-.446h5.052A.261.261,0,0,1,15.907,2.731ZM11.4,7.241,6.79,11.848a.261.261,0,0,1-.369,0L2.793,8.221a.261.261,0,0,1,0-.369L7.4,3.245a.261.261,0,0,1,.369,0L11.4,6.872A.261.261,0,0,1,11.4,7.241Z" transform="translate(0 0)" fill="#fff"/>
        <ellipse id="Ellipse_1-8" data-name="Ellipse 1" cx="1.118" cy="1.118" rx="1.118" ry="1.118" transform="translate(12.079 12.849)" fill="#fff"/>
      </g>
      <g id="Group_3579" data-name="Group 3579" transform="translate(118.219)">
        <path id="Path_26-9" data-name="Path 26" d="M563.88-1556.984H553.561a1.5,1.5,0,0,0-1.063.44l-6.534,6.533a1.5,1.5,0,0,0,0,2.125l11.694,11.694a1.5,1.5,0,0,0,2.125,0l11.693-11.694a1.5,1.5,0,0,0,0-2.125l-6.534-6.533A1.5,1.5,0,0,0,563.88-1556.984Zm5.244,8.22-10.218,10.219a.261.261,0,0,1-.37,0l-4.607-4.607a.261.261,0,0,1,0-.369l10.218-10.219a.262.262,0,0,1,.37,0l4.607,4.606A.261.261,0,0,1,569.124-1548.763Zm-7.693-5.49-2.525,2.526a.262.262,0,0,1-.369,0l-2.526-2.526a.261.261,0,0,1,.185-.446h5.052A.261.261,0,0,1,561.431-1554.253Zm-4.51,4.51-4.607,4.607a.261.261,0,0,1-.369,0l-3.628-3.627a.261.261,0,0,1,0-.369l4.607-4.607a.261.261,0,0,1,.369,0l3.627,3.627A.262.262,0,0,1,556.921-1549.743Z" transform="translate(-545.524 1556.984)" fill="#fff"/>
        <ellipse id="Ellipse_1-9" data-name="Ellipse 1" cx="1.118" cy="1.118" rx="1.118" ry="1.118" transform="translate(12.079 12.849)" fill="#fff"/>
      </g>
      <g id="Group_3587" data-name="Group 3587" transform="translate(100.516 34.71) rotate(180)">
        <path id="Path_26-10" data-name="Path 26" d="M18.356,0H8.037A1.5,1.5,0,0,0,6.974.44L.44,6.973A1.5,1.5,0,0,0,.44,9.1L12.134,20.792a1.5,1.5,0,0,0,2.126,0L25.953,9.1a1.5,1.5,0,0,0,0-2.126L19.419.44A1.5,1.5,0,0,0,18.356,0ZM23.6,8.221,13.382,18.44a.261.261,0,0,1-.369,0L8.4,13.833a.261.261,0,0,1,0-.369L18.623,3.245a.261.261,0,0,1,.369,0L23.6,7.851A.261.261,0,0,1,23.6,8.221Zm-7.693-5.49L13.382,5.256a.261.261,0,0,1-.369,0L10.486,2.731a.261.261,0,0,1,.185-.446h5.052A.261.261,0,0,1,15.907,2.731ZM11.4,7.241,6.79,11.848a.261.261,0,0,1-.369,0L2.793,8.221a.261.261,0,0,1,0-.369L7.4,3.245a.261.261,0,0,1,.369,0L11.4,6.872A.261.261,0,0,1,11.4,7.241Z" transform="translate(0 0)" fill="#fff"/>
        <ellipse id="Ellipse_1-10" data-name="Ellipse 1" cx="1.118" cy="1.118" rx="1.118" ry="1.118" transform="translate(12.079 12.849)" fill="#fff"/>
      </g>
      <g id="Group_3580" data-name="Group 3580" transform="translate(147.773)">
        <path id="Path_26-11" data-name="Path 26" d="M563.88-1556.984H553.561a1.5,1.5,0,0,0-1.063.44l-6.534,6.533a1.5,1.5,0,0,0,0,2.125l11.694,11.694a1.5,1.5,0,0,0,2.125,0l11.693-11.694a1.5,1.5,0,0,0,0-2.125l-6.534-6.533A1.5,1.5,0,0,0,563.88-1556.984Zm5.244,8.22-10.218,10.219a.261.261,0,0,1-.37,0l-4.607-4.607a.261.261,0,0,1,0-.369l10.218-10.219a.262.262,0,0,1,.37,0l4.607,4.606A.261.261,0,0,1,569.124-1548.763Zm-7.693-5.49-2.525,2.526a.262.262,0,0,1-.369,0l-2.526-2.526a.261.261,0,0,1,.185-.446h5.052A.261.261,0,0,1,561.431-1554.253Zm-4.51,4.51-4.607,4.607a.261.261,0,0,1-.369,0l-3.628-3.627a.261.261,0,0,1,0-.369l4.607-4.607a.261.261,0,0,1,.369,0l3.627,3.627A.262.262,0,0,1,556.921-1549.743Z" transform="translate(-545.524 1556.984)" fill="#fff"/>
        <ellipse id="Ellipse_1-11" data-name="Ellipse 1" cx="1.118" cy="1.118" rx="1.118" ry="1.118" transform="translate(12.079 12.849)" fill="#fff"/>
      </g>
      <g id="Group_3588" data-name="Group 3588" transform="translate(70.961 34.71) rotate(180)">
        <path id="Path_26-12" data-name="Path 26" d="M18.356,0H8.037A1.5,1.5,0,0,0,6.974.44L.44,6.973A1.5,1.5,0,0,0,.44,9.1L12.134,20.792a1.5,1.5,0,0,0,2.126,0L25.953,9.1a1.5,1.5,0,0,0,0-2.126L19.419.44A1.5,1.5,0,0,0,18.356,0ZM23.6,8.221,13.382,18.44a.261.261,0,0,1-.369,0L8.4,13.833a.261.261,0,0,1,0-.369L18.623,3.245a.261.261,0,0,1,.369,0L23.6,7.851A.261.261,0,0,1,23.6,8.221Zm-7.693-5.49L13.382,5.256a.261.261,0,0,1-.369,0L10.486,2.731a.261.261,0,0,1,.185-.446h5.052A.261.261,0,0,1,15.907,2.731ZM11.4,7.241,6.79,11.848a.261.261,0,0,1-.369,0L2.793,8.221a.261.261,0,0,1,0-.369L7.4,3.245a.261.261,0,0,1,.369,0L11.4,6.872A.261.261,0,0,1,11.4,7.241Z" transform="translate(0 0)" fill="#fff"/>
        <ellipse id="Ellipse_1-12" data-name="Ellipse 1" cx="1.118" cy="1.118" rx="1.118" ry="1.118" transform="translate(12.079 12.849)" fill="#fff"/>
      </g>
      <g id="Group_3581" data-name="Group 3581" transform="translate(177.328)">
        <path id="Path_26-13" data-name="Path 26" d="M563.88-1556.984H553.561a1.5,1.5,0,0,0-1.063.44l-6.534,6.533a1.5,1.5,0,0,0,0,2.125l11.694,11.694a1.5,1.5,0,0,0,2.125,0l11.693-11.694a1.5,1.5,0,0,0,0-2.125l-6.534-6.533A1.5,1.5,0,0,0,563.88-1556.984Zm5.244,8.22-10.218,10.219a.261.261,0,0,1-.37,0l-4.607-4.607a.261.261,0,0,1,0-.369l10.218-10.219a.262.262,0,0,1,.37,0l4.607,4.606A.261.261,0,0,1,569.124-1548.763Zm-7.693-5.49-2.525,2.526a.262.262,0,0,1-.369,0l-2.526-2.526a.261.261,0,0,1,.185-.446h5.052A.261.261,0,0,1,561.431-1554.253Zm-4.51,4.51-4.607,4.607a.261.261,0,0,1-.369,0l-3.628-3.627a.261.261,0,0,1,0-.369l4.607-4.607a.261.261,0,0,1,.369,0l3.627,3.627A.262.262,0,0,1,556.921-1549.743Z" transform="translate(-545.524 1556.984)" fill="#fff"/>
        <ellipse id="Ellipse_1-13" data-name="Ellipse 1" cx="1.118" cy="1.118" rx="1.118" ry="1.118" transform="translate(12.079 12.849)" fill="#fff"/>
      </g>
      <g id="Group_3589" data-name="Group 3589" transform="translate(41.407 34.71) rotate(180)">
        <path id="Path_26-14" data-name="Path 26" d="M18.356,0H8.037A1.5,1.5,0,0,0,6.974.44L.44,6.973A1.5,1.5,0,0,0,.44,9.1L12.134,20.792a1.5,1.5,0,0,0,2.126,0L25.953,9.1a1.5,1.5,0,0,0,0-2.126L19.419.44A1.5,1.5,0,0,0,18.356,0ZM23.6,8.221,13.382,18.44a.261.261,0,0,1-.369,0L8.4,13.833a.261.261,0,0,1,0-.369L18.623,3.245a.261.261,0,0,1,.369,0L23.6,7.851A.261.261,0,0,1,23.6,8.221Zm-7.693-5.49L13.382,5.256a.261.261,0,0,1-.369,0L10.486,2.731a.261.261,0,0,1,.185-.446h5.052A.261.261,0,0,1,15.907,2.731ZM11.4,7.241,6.79,11.848a.261.261,0,0,1-.369,0L2.793,8.221a.261.261,0,0,1,0-.369L7.4,3.245a.261.261,0,0,1,.369,0L11.4,6.872A.261.261,0,0,1,11.4,7.241Z" transform="translate(0 0)" fill="#fff"/>
        <ellipse id="Ellipse_1-14" data-name="Ellipse 1" cx="1.118" cy="1.118" rx="1.118" ry="1.118" transform="translate(12.079 12.849)" fill="#fff"/>
      </g>
    </g>
    <g id="Group_3593" data-name="Group 3593" transform="translate(0 34.71)">
      <g id="Group_4-2" data-name="Group 4" transform="translate(29.555)">
        <path id="Path_26-15" data-name="Path 26" d="M563.88-1556.984H553.561a1.5,1.5,0,0,0-1.063.44l-6.534,6.533a1.5,1.5,0,0,0,0,2.125l11.694,11.694a1.5,1.5,0,0,0,2.125,0l11.693-11.694a1.5,1.5,0,0,0,0-2.125l-6.534-6.533A1.5,1.5,0,0,0,563.88-1556.984Zm5.244,8.22-10.218,10.219a.261.261,0,0,1-.37,0l-4.607-4.607a.261.261,0,0,1,0-.369l10.218-10.219a.262.262,0,0,1,.37,0l4.607,4.606A.261.261,0,0,1,569.124-1548.763Zm-7.693-5.49-2.525,2.526a.262.262,0,0,1-.369,0l-2.526-2.526a.261.261,0,0,1,.185-.446h5.052A.261.261,0,0,1,561.431-1554.253Zm-4.51,4.51-4.607,4.607a.261.261,0,0,1-.369,0l-3.628-3.627a.261.261,0,0,1,0-.369l4.607-4.607a.261.261,0,0,1,.369,0l3.627,3.627A.262.262,0,0,1,556.921-1549.743Z" transform="translate(-545.524 1556.984)" fill="#fff"/>
        <ellipse id="Ellipse_1-15" data-name="Ellipse 1" cx="1.118" cy="1.118" rx="1.118" ry="1.118" transform="translate(12.079 12.849)" fill="#fff"/>
      </g>
      <g id="Group_3584-2" data-name="Group 3584" transform="translate(189.18 34.71) rotate(180)">
        <path id="Path_26-16" data-name="Path 26" d="M18.356,0H8.037A1.5,1.5,0,0,0,6.974.44L.44,6.973A1.5,1.5,0,0,0,.44,9.1L12.134,20.792a1.5,1.5,0,0,0,2.126,0L25.953,9.1a1.5,1.5,0,0,0,0-2.126L19.419.44A1.5,1.5,0,0,0,18.356,0ZM23.6,8.221,13.382,18.44a.261.261,0,0,1-.369,0L8.4,13.833a.261.261,0,0,1,0-.369L18.623,3.245a.261.261,0,0,1,.369,0L23.6,7.851A.261.261,0,0,1,23.6,8.221Zm-7.693-5.49L13.382,5.256a.261.261,0,0,1-.369,0L10.486,2.731a.261.261,0,0,1,.185-.446h5.052A.261.261,0,0,1,15.907,2.731ZM11.4,7.241,6.79,11.848a.261.261,0,0,1-.369,0L2.793,8.221a.261.261,0,0,1,0-.369L7.4,3.245a.261.261,0,0,1,.369,0L11.4,6.872A.261.261,0,0,1,11.4,7.241Z" transform="translate(0 0)" fill="#fff"/>
        <ellipse id="Ellipse_1-16" data-name="Ellipse 1" cx="1.118" cy="1.118" rx="1.118" ry="1.118" transform="translate(12.079 12.849)" fill="#fff"/>
      </g>
      <g id="Group_3582-2" data-name="Group 3582">
        <path id="Path_26-17" data-name="Path 26" d="M563.88-1556.984H553.561a1.5,1.5,0,0,0-1.063.44l-6.534,6.533a1.5,1.5,0,0,0,0,2.125l11.694,11.694a1.5,1.5,0,0,0,2.125,0l11.693-11.694a1.5,1.5,0,0,0,0-2.125l-6.534-6.533A1.5,1.5,0,0,0,563.88-1556.984Zm5.244,8.22-10.218,10.219a.261.261,0,0,1-.37,0l-4.607-4.607a.261.261,0,0,1,0-.369l10.218-10.219a.262.262,0,0,1,.37,0l4.607,4.606A.261.261,0,0,1,569.124-1548.763Zm-7.693-5.49-2.525,2.526a.262.262,0,0,1-.369,0l-2.526-2.526a.261.261,0,0,1,.185-.446h5.052A.261.261,0,0,1,561.431-1554.253Zm-4.51,4.51-4.607,4.607a.261.261,0,0,1-.369,0l-3.628-3.627a.261.261,0,0,1,0-.369l4.607-4.607a.261.261,0,0,1,.369,0l3.627,3.627A.262.262,0,0,1,556.921-1549.743Z" transform="translate(-545.524 1556.984)" fill="#fff"/>
        <ellipse id="Ellipse_1-17" data-name="Ellipse 1" cx="1.118" cy="1.118" rx="1.118" ry="1.118" transform="translate(12.079 12.849)" fill="#fff"/>
      </g>
      <g id="Group_3583-2" data-name="Group 3583" transform="translate(218.735 34.71) rotate(180)">
        <path id="Path_26-18" data-name="Path 26" d="M18.356,0H8.037A1.5,1.5,0,0,0,6.974.44L.44,6.973A1.5,1.5,0,0,0,.44,9.1L12.134,20.792a1.5,1.5,0,0,0,2.126,0L25.953,9.1a1.5,1.5,0,0,0,0-2.126L19.419.44A1.5,1.5,0,0,0,18.356,0ZM23.6,8.221,13.382,18.44a.261.261,0,0,1-.369,0L8.4,13.833a.261.261,0,0,1,0-.369L18.623,3.245a.261.261,0,0,1,.369,0L23.6,7.851A.261.261,0,0,1,23.6,8.221Zm-7.693-5.49L13.382,5.256a.261.261,0,0,1-.369,0L10.486,2.731a.261.261,0,0,1,.185-.446h5.052A.261.261,0,0,1,15.907,2.731ZM11.4,7.241,6.79,11.848a.261.261,0,0,1-.369,0L2.793,8.221a.261.261,0,0,1,0-.369L7.4,3.245a.261.261,0,0,1,.369,0L11.4,6.872A.261.261,0,0,1,11.4,7.241Z" transform="translate(0 0)" fill="#fff"/>
        <ellipse id="Ellipse_1-18" data-name="Ellipse 1" cx="1.118" cy="1.118" rx="1.118" ry="1.118" transform="translate(12.079 12.849)" fill="#fff"/>
      </g>
      <g id="Group_3577-2" data-name="Group 3577" transform="translate(59.109)">
        <path id="Path_26-19" data-name="Path 26" d="M563.88-1556.984H553.561a1.5,1.5,0,0,0-1.063.44l-6.534,6.533a1.5,1.5,0,0,0,0,2.125l11.694,11.694a1.5,1.5,0,0,0,2.125,0l11.693-11.694a1.5,1.5,0,0,0,0-2.125l-6.534-6.533A1.5,1.5,0,0,0,563.88-1556.984Zm5.244,8.22-10.218,10.219a.261.261,0,0,1-.37,0l-4.607-4.607a.261.261,0,0,1,0-.369l10.218-10.219a.262.262,0,0,1,.37,0l4.607,4.606A.261.261,0,0,1,569.124-1548.763Zm-7.693-5.49-2.525,2.526a.262.262,0,0,1-.369,0l-2.526-2.526a.261.261,0,0,1,.185-.446h5.052A.261.261,0,0,1,561.431-1554.253Zm-4.51,4.51-4.607,4.607a.261.261,0,0,1-.369,0l-3.628-3.627a.261.261,0,0,1,0-.369l4.607-4.607a.261.261,0,0,1,.369,0l3.627,3.627A.262.262,0,0,1,556.921-1549.743Z" transform="translate(-545.524 1556.984)" fill="#fff"/>
        <ellipse id="Ellipse_1-19" data-name="Ellipse 1" cx="1.118" cy="1.118" rx="1.118" ry="1.118" transform="translate(12.079 12.849)" fill="#fff"/>
      </g>
      <g id="Group_3585-2" data-name="Group 3585" transform="translate(159.625 34.71) rotate(180)">
        <path id="Path_26-20" data-name="Path 26" d="M18.356,0H8.037A1.5,1.5,0,0,0,6.974.44L.44,6.973A1.5,1.5,0,0,0,.44,9.1L12.134,20.792a1.5,1.5,0,0,0,2.126,0L25.953,9.1a1.5,1.5,0,0,0,0-2.126L19.419.44A1.5,1.5,0,0,0,18.356,0ZM23.6,8.221,13.382,18.44a.261.261,0,0,1-.369,0L8.4,13.833a.261.261,0,0,1,0-.369L18.623,3.245a.261.261,0,0,1,.369,0L23.6,7.851A.261.261,0,0,1,23.6,8.221Zm-7.693-5.49L13.382,5.256a.261.261,0,0,1-.369,0L10.486,2.731a.261.261,0,0,1,.185-.446h5.052A.261.261,0,0,1,15.907,2.731ZM11.4,7.241,6.79,11.848a.261.261,0,0,1-.369,0L2.793,8.221a.261.261,0,0,1,0-.369L7.4,3.245a.261.261,0,0,1,.369,0L11.4,6.872A.261.261,0,0,1,11.4,7.241Z" transform="translate(0 0)" fill="#fff"/>
        <ellipse id="Ellipse_1-20" data-name="Ellipse 1" cx="1.118" cy="1.118" rx="1.118" ry="1.118" transform="translate(12.079 12.849)" fill="#fff"/>
      </g>
      <g id="Group_3578-2" data-name="Group 3578" transform="translate(88.664)">
        <path id="Path_26-21" data-name="Path 26" d="M563.88-1556.984H553.561a1.5,1.5,0,0,0-1.063.44l-6.534,6.533a1.5,1.5,0,0,0,0,2.125l11.694,11.694a1.5,1.5,0,0,0,2.125,0l11.693-11.694a1.5,1.5,0,0,0,0-2.125l-6.534-6.533A1.5,1.5,0,0,0,563.88-1556.984Zm5.244,8.22-10.218,10.219a.261.261,0,0,1-.37,0l-4.607-4.607a.261.261,0,0,1,0-.369l10.218-10.219a.262.262,0,0,1,.37,0l4.607,4.606A.261.261,0,0,1,569.124-1548.763Zm-7.693-5.49-2.525,2.526a.262.262,0,0,1-.369,0l-2.526-2.526a.261.261,0,0,1,.185-.446h5.052A.261.261,0,0,1,561.431-1554.253Zm-4.51,4.51-4.607,4.607a.261.261,0,0,1-.369,0l-3.628-3.627a.261.261,0,0,1,0-.369l4.607-4.607a.261.261,0,0,1,.369,0l3.627,3.627A.262.262,0,0,1,556.921-1549.743Z" transform="translate(-545.524 1556.984)" fill="#fff"/>
        <ellipse id="Ellipse_1-21" data-name="Ellipse 1" cx="1.118" cy="1.118" rx="1.118" ry="1.118" transform="translate(12.079 12.849)" fill="#fff"/>
      </g>
      <g id="Group_3586-2" data-name="Group 3586" transform="translate(130.071 34.71) rotate(180)">
        <path id="Path_26-22" data-name="Path 26" d="M18.356,0H8.037A1.5,1.5,0,0,0,6.974.44L.44,6.973A1.5,1.5,0,0,0,.44,9.1L12.134,20.792a1.5,1.5,0,0,0,2.126,0L25.953,9.1a1.5,1.5,0,0,0,0-2.126L19.419.44A1.5,1.5,0,0,0,18.356,0ZM23.6,8.221,13.382,18.44a.261.261,0,0,1-.369,0L8.4,13.833a.261.261,0,0,1,0-.369L18.623,3.245a.261.261,0,0,1,.369,0L23.6,7.851A.261.261,0,0,1,23.6,8.221Zm-7.693-5.49L13.382,5.256a.261.261,0,0,1-.369,0L10.486,2.731a.261.261,0,0,1,.185-.446h5.052A.261.261,0,0,1,15.907,2.731ZM11.4,7.241,6.79,11.848a.261.261,0,0,1-.369,0L2.793,8.221a.261.261,0,0,1,0-.369L7.4,3.245a.261.261,0,0,1,.369,0L11.4,6.872A.261.261,0,0,1,11.4,7.241Z" transform="translate(0 0)" fill="#fff"/>
        <ellipse id="Ellipse_1-22" data-name="Ellipse 1" cx="1.118" cy="1.118" rx="1.118" ry="1.118" transform="translate(12.079 12.849)" fill="#fff"/>
      </g>
      <g id="Group_3579-2" data-name="Group 3579" transform="translate(118.219)">
        <path id="Path_26-23" data-name="Path 26" d="M563.88-1556.984H553.561a1.5,1.5,0,0,0-1.063.44l-6.534,6.533a1.5,1.5,0,0,0,0,2.125l11.694,11.694a1.5,1.5,0,0,0,2.125,0l11.693-11.694a1.5,1.5,0,0,0,0-2.125l-6.534-6.533A1.5,1.5,0,0,0,563.88-1556.984Zm5.244,8.22-10.218,10.219a.261.261,0,0,1-.37,0l-4.607-4.607a.261.261,0,0,1,0-.369l10.218-10.219a.262.262,0,0,1,.37,0l4.607,4.606A.261.261,0,0,1,569.124-1548.763Zm-7.693-5.49-2.525,2.526a.262.262,0,0,1-.369,0l-2.526-2.526a.261.261,0,0,1,.185-.446h5.052A.261.261,0,0,1,561.431-1554.253Zm-4.51,4.51-4.607,4.607a.261.261,0,0,1-.369,0l-3.628-3.627a.261.261,0,0,1,0-.369l4.607-4.607a.261.261,0,0,1,.369,0l3.627,3.627A.262.262,0,0,1,556.921-1549.743Z" transform="translate(-545.524 1556.984)" fill="#fff"/>
        <ellipse id="Ellipse_1-23" data-name="Ellipse 1" cx="1.118" cy="1.118" rx="1.118" ry="1.118" transform="translate(12.079 12.849)" fill="#fff"/>
      </g>
      <g id="Group_3587-2" data-name="Group 3587" transform="translate(100.516 34.71) rotate(180)">
        <path id="Path_26-24" data-name="Path 26" d="M18.356,0H8.037A1.5,1.5,0,0,0,6.974.44L.44,6.973A1.5,1.5,0,0,0,.44,9.1L12.134,20.792a1.5,1.5,0,0,0,2.126,0L25.953,9.1a1.5,1.5,0,0,0,0-2.126L19.419.44A1.5,1.5,0,0,0,18.356,0ZM23.6,8.221,13.382,18.44a.261.261,0,0,1-.369,0L8.4,13.833a.261.261,0,0,1,0-.369L18.623,3.245a.261.261,0,0,1,.369,0L23.6,7.851A.261.261,0,0,1,23.6,8.221Zm-7.693-5.49L13.382,5.256a.261.261,0,0,1-.369,0L10.486,2.731a.261.261,0,0,1,.185-.446h5.052A.261.261,0,0,1,15.907,2.731ZM11.4,7.241,6.79,11.848a.261.261,0,0,1-.369,0L2.793,8.221a.261.261,0,0,1,0-.369L7.4,3.245a.261.261,0,0,1,.369,0L11.4,6.872A.261.261,0,0,1,11.4,7.241Z" transform="translate(0 0)" fill="#fff"/>
        <ellipse id="Ellipse_1-24" data-name="Ellipse 1" cx="1.118" cy="1.118" rx="1.118" ry="1.118" transform="translate(12.079 12.849)" fill="#fff"/>
      </g>
      <g id="Group_3580-2" data-name="Group 3580" transform="translate(147.773)">
        <path id="Path_26-25" data-name="Path 26" d="M563.88-1556.984H553.561a1.5,1.5,0,0,0-1.063.44l-6.534,6.533a1.5,1.5,0,0,0,0,2.125l11.694,11.694a1.5,1.5,0,0,0,2.125,0l11.693-11.694a1.5,1.5,0,0,0,0-2.125l-6.534-6.533A1.5,1.5,0,0,0,563.88-1556.984Zm5.244,8.22-10.218,10.219a.261.261,0,0,1-.37,0l-4.607-4.607a.261.261,0,0,1,0-.369l10.218-10.219a.262.262,0,0,1,.37,0l4.607,4.606A.261.261,0,0,1,569.124-1548.763Zm-7.693-5.49-2.525,2.526a.262.262,0,0,1-.369,0l-2.526-2.526a.261.261,0,0,1,.185-.446h5.052A.261.261,0,0,1,561.431-1554.253Zm-4.51,4.51-4.607,4.607a.261.261,0,0,1-.369,0l-3.628-3.627a.261.261,0,0,1,0-.369l4.607-4.607a.261.261,0,0,1,.369,0l3.627,3.627A.262.262,0,0,1,556.921-1549.743Z" transform="translate(-545.524 1556.984)" fill="#fff"/>
        <ellipse id="Ellipse_1-25" data-name="Ellipse 1" cx="1.118" cy="1.118" rx="1.118" ry="1.118" transform="translate(12.079 12.849)" fill="#fff"/>
      </g>
      <g id="Group_3588-2" data-name="Group 3588" transform="translate(70.961 34.71) rotate(180)">
        <path id="Path_26-26" data-name="Path 26" d="M18.356,0H8.037A1.5,1.5,0,0,0,6.974.44L.44,6.973A1.5,1.5,0,0,0,.44,9.1L12.134,20.792a1.5,1.5,0,0,0,2.126,0L25.953,9.1a1.5,1.5,0,0,0,0-2.126L19.419.44A1.5,1.5,0,0,0,18.356,0ZM23.6,8.221,13.382,18.44a.261.261,0,0,1-.369,0L8.4,13.833a.261.261,0,0,1,0-.369L18.623,3.245a.261.261,0,0,1,.369,0L23.6,7.851A.261.261,0,0,1,23.6,8.221Zm-7.693-5.49L13.382,5.256a.261.261,0,0,1-.369,0L10.486,2.731a.261.261,0,0,1,.185-.446h5.052A.261.261,0,0,1,15.907,2.731ZM11.4,7.241,6.79,11.848a.261.261,0,0,1-.369,0L2.793,8.221a.261.261,0,0,1,0-.369L7.4,3.245a.261.261,0,0,1,.369,0L11.4,6.872A.261.261,0,0,1,11.4,7.241Z" transform="translate(0 0)" fill="#fff"/>
        <ellipse id="Ellipse_1-26" data-name="Ellipse 1" cx="1.118" cy="1.118" rx="1.118" ry="1.118" transform="translate(12.079 12.849)" fill="#fff"/>
      </g>
      <g id="Group_3581-2" data-name="Group 3581" transform="translate(177.328)">
        <path id="Path_26-27" data-name="Path 26" d="M563.88-1556.984H553.561a1.5,1.5,0,0,0-1.063.44l-6.534,6.533a1.5,1.5,0,0,0,0,2.125l11.694,11.694a1.5,1.5,0,0,0,2.125,0l11.693-11.694a1.5,1.5,0,0,0,0-2.125l-6.534-6.533A1.5,1.5,0,0,0,563.88-1556.984Zm5.244,8.22-10.218,10.219a.261.261,0,0,1-.37,0l-4.607-4.607a.261.261,0,0,1,0-.369l10.218-10.219a.262.262,0,0,1,.37,0l4.607,4.606A.261.261,0,0,1,569.124-1548.763Zm-7.693-5.49-2.525,2.526a.262.262,0,0,1-.369,0l-2.526-2.526a.261.261,0,0,1,.185-.446h5.052A.261.261,0,0,1,561.431-1554.253Zm-4.51,4.51-4.607,4.607a.261.261,0,0,1-.369,0l-3.628-3.627a.261.261,0,0,1,0-.369l4.607-4.607a.261.261,0,0,1,.369,0l3.627,3.627A.262.262,0,0,1,556.921-1549.743Z" transform="translate(-545.524 1556.984)" fill="#fff"/>
        <ellipse id="Ellipse_1-27" data-name="Ellipse 1" cx="1.118" cy="1.118" rx="1.118" ry="1.118" transform="translate(12.079 12.849)" fill="#fff"/>
      </g>
      <g id="Group_3589-2" data-name="Group 3589" transform="translate(41.407 34.71) rotate(180)">
        <path id="Path_26-28" data-name="Path 26" d="M18.356,0H8.037A1.5,1.5,0,0,0,6.974.44L.44,6.973A1.5,1.5,0,0,0,.44,9.1L12.134,20.792a1.5,1.5,0,0,0,2.126,0L25.953,9.1a1.5,1.5,0,0,0,0-2.126L19.419.44A1.5,1.5,0,0,0,18.356,0ZM23.6,8.221,13.382,18.44a.261.261,0,0,1-.369,0L8.4,13.833a.261.261,0,0,1,0-.369L18.623,3.245a.261.261,0,0,1,.369,0L23.6,7.851A.261.261,0,0,1,23.6,8.221Zm-7.693-5.49L13.382,5.256a.261.261,0,0,1-.369,0L10.486,2.731a.261.261,0,0,1,.185-.446h5.052A.261.261,0,0,1,15.907,2.731ZM11.4,7.241,6.79,11.848a.261.261,0,0,1-.369,0L2.793,8.221a.261.261,0,0,1,0-.369L7.4,3.245a.261.261,0,0,1,.369,0L11.4,6.872A.261.261,0,0,1,11.4,7.241Z" transform="translate(0 0)" fill="#fff"/>
        <ellipse id="Ellipse_1-28" data-name="Ellipse 1" cx="1.118" cy="1.118" rx="1.118" ry="1.118" transform="translate(12.079 12.849)" fill="#fff"/>
      </g>
    </g>
    <g id="Group_3595" data-name="Group 3595" transform="translate(0 69.419)">
      <g id="Group_4-3" data-name="Group 4" transform="translate(29.555)">
        <path id="Path_26-29" data-name="Path 26" d="M563.88-1556.984H553.561a1.5,1.5,0,0,0-1.063.44l-6.534,6.533a1.5,1.5,0,0,0,0,2.125l11.694,11.694a1.5,1.5,0,0,0,2.125,0l11.693-11.694a1.5,1.5,0,0,0,0-2.125l-6.534-6.533A1.5,1.5,0,0,0,563.88-1556.984Zm5.244,8.22-10.218,10.219a.261.261,0,0,1-.37,0l-4.607-4.607a.261.261,0,0,1,0-.369l10.218-10.219a.262.262,0,0,1,.37,0l4.607,4.606A.261.261,0,0,1,569.124-1548.763Zm-7.693-5.49-2.525,2.526a.262.262,0,0,1-.369,0l-2.526-2.526a.261.261,0,0,1,.185-.446h5.052A.261.261,0,0,1,561.431-1554.253Zm-4.51,4.51-4.607,4.607a.261.261,0,0,1-.369,0l-3.628-3.627a.261.261,0,0,1,0-.369l4.607-4.607a.261.261,0,0,1,.369,0l3.627,3.627A.262.262,0,0,1,556.921-1549.743Z" transform="translate(-545.524 1556.984)" fill="#fff"/>
        <ellipse id="Ellipse_1-29" data-name="Ellipse 1" cx="1.118" cy="1.118" rx="1.118" ry="1.118" transform="translate(12.079 12.849)" fill="#fff"/>
      </g>
      <g id="Group_3584-3" data-name="Group 3584" transform="translate(189.18 34.71) rotate(180)">
        <path id="Path_26-30" data-name="Path 26" d="M18.356,0H8.037A1.5,1.5,0,0,0,6.974.44L.44,6.973A1.5,1.5,0,0,0,.44,9.1L12.134,20.792a1.5,1.5,0,0,0,2.126,0L25.953,9.1a1.5,1.5,0,0,0,0-2.126L19.419.44A1.5,1.5,0,0,0,18.356,0ZM23.6,8.221,13.382,18.44a.261.261,0,0,1-.369,0L8.4,13.833a.261.261,0,0,1,0-.369L18.623,3.245a.261.261,0,0,1,.369,0L23.6,7.851A.261.261,0,0,1,23.6,8.221Zm-7.693-5.49L13.382,5.256a.261.261,0,0,1-.369,0L10.486,2.731a.261.261,0,0,1,.185-.446h5.052A.261.261,0,0,1,15.907,2.731ZM11.4,7.241,6.79,11.848a.261.261,0,0,1-.369,0L2.793,8.221a.261.261,0,0,1,0-.369L7.4,3.245a.261.261,0,0,1,.369,0L11.4,6.872A.261.261,0,0,1,11.4,7.241Z" transform="translate(0 0)" fill="#fff"/>
        <ellipse id="Ellipse_1-30" data-name="Ellipse 1" cx="1.118" cy="1.118" rx="1.118" ry="1.118" transform="translate(12.079 12.849)" fill="#fff"/>
      </g>
      <g id="Group_3582-3" data-name="Group 3582">
        <path id="Path_26-31" data-name="Path 26" d="M563.88-1556.984H553.561a1.5,1.5,0,0,0-1.063.44l-6.534,6.533a1.5,1.5,0,0,0,0,2.125l11.694,11.694a1.5,1.5,0,0,0,2.125,0l11.693-11.694a1.5,1.5,0,0,0,0-2.125l-6.534-6.533A1.5,1.5,0,0,0,563.88-1556.984Zm5.244,8.22-10.218,10.219a.261.261,0,0,1-.37,0l-4.607-4.607a.261.261,0,0,1,0-.369l10.218-10.219a.262.262,0,0,1,.37,0l4.607,4.606A.261.261,0,0,1,569.124-1548.763Zm-7.693-5.49-2.525,2.526a.262.262,0,0,1-.369,0l-2.526-2.526a.261.261,0,0,1,.185-.446h5.052A.261.261,0,0,1,561.431-1554.253Zm-4.51,4.51-4.607,4.607a.261.261,0,0,1-.369,0l-3.628-3.627a.261.261,0,0,1,0-.369l4.607-4.607a.261.261,0,0,1,.369,0l3.627,3.627A.262.262,0,0,1,556.921-1549.743Z" transform="translate(-545.524 1556.984)" fill="#fff"/>
        <ellipse id="Ellipse_1-31" data-name="Ellipse 1" cx="1.118" cy="1.118" rx="1.118" ry="1.118" transform="translate(12.079 12.849)" fill="#fff"/>
      </g>
      <g id="Group_3583-3" data-name="Group 3583" transform="translate(218.735 34.71) rotate(180)">
        <path id="Path_26-32" data-name="Path 26" d="M18.356,0H8.037A1.5,1.5,0,0,0,6.974.44L.44,6.973A1.5,1.5,0,0,0,.44,9.1L12.134,20.792a1.5,1.5,0,0,0,2.126,0L25.953,9.1a1.5,1.5,0,0,0,0-2.126L19.419.44A1.5,1.5,0,0,0,18.356,0ZM23.6,8.221,13.382,18.44a.261.261,0,0,1-.369,0L8.4,13.833a.261.261,0,0,1,0-.369L18.623,3.245a.261.261,0,0,1,.369,0L23.6,7.851A.261.261,0,0,1,23.6,8.221Zm-7.693-5.49L13.382,5.256a.261.261,0,0,1-.369,0L10.486,2.731a.261.261,0,0,1,.185-.446h5.052A.261.261,0,0,1,15.907,2.731ZM11.4,7.241,6.79,11.848a.261.261,0,0,1-.369,0L2.793,8.221a.261.261,0,0,1,0-.369L7.4,3.245a.261.261,0,0,1,.369,0L11.4,6.872A.261.261,0,0,1,11.4,7.241Z" transform="translate(0 0)" fill="#fff"/>
        <ellipse id="Ellipse_1-32" data-name="Ellipse 1" cx="1.118" cy="1.118" rx="1.118" ry="1.118" transform="translate(12.079 12.849)" fill="#fff"/>
      </g>
      <g id="Group_3577-3" data-name="Group 3577" transform="translate(59.109)">
        <path id="Path_26-33" data-name="Path 26" d="M563.88-1556.984H553.561a1.5,1.5,0,0,0-1.063.44l-6.534,6.533a1.5,1.5,0,0,0,0,2.125l11.694,11.694a1.5,1.5,0,0,0,2.125,0l11.693-11.694a1.5,1.5,0,0,0,0-2.125l-6.534-6.533A1.5,1.5,0,0,0,563.88-1556.984Zm5.244,8.22-10.218,10.219a.261.261,0,0,1-.37,0l-4.607-4.607a.261.261,0,0,1,0-.369l10.218-10.219a.262.262,0,0,1,.37,0l4.607,4.606A.261.261,0,0,1,569.124-1548.763Zm-7.693-5.49-2.525,2.526a.262.262,0,0,1-.369,0l-2.526-2.526a.261.261,0,0,1,.185-.446h5.052A.261.261,0,0,1,561.431-1554.253Zm-4.51,4.51-4.607,4.607a.261.261,0,0,1-.369,0l-3.628-3.627a.261.261,0,0,1,0-.369l4.607-4.607a.261.261,0,0,1,.369,0l3.627,3.627A.262.262,0,0,1,556.921-1549.743Z" transform="translate(-545.524 1556.984)" fill="#fff"/>
        <ellipse id="Ellipse_1-33" data-name="Ellipse 1" cx="1.118" cy="1.118" rx="1.118" ry="1.118" transform="translate(12.079 12.849)" fill="#fff"/>
      </g>
      <g id="Group_3585-3" data-name="Group 3585" transform="translate(159.625 34.71) rotate(180)">
        <path id="Path_26-34" data-name="Path 26" d="M18.356,0H8.037A1.5,1.5,0,0,0,6.974.44L.44,6.973A1.5,1.5,0,0,0,.44,9.1L12.134,20.792a1.5,1.5,0,0,0,2.126,0L25.953,9.1a1.5,1.5,0,0,0,0-2.126L19.419.44A1.5,1.5,0,0,0,18.356,0ZM23.6,8.221,13.382,18.44a.261.261,0,0,1-.369,0L8.4,13.833a.261.261,0,0,1,0-.369L18.623,3.245a.261.261,0,0,1,.369,0L23.6,7.851A.261.261,0,0,1,23.6,8.221Zm-7.693-5.49L13.382,5.256a.261.261,0,0,1-.369,0L10.486,2.731a.261.261,0,0,1,.185-.446h5.052A.261.261,0,0,1,15.907,2.731ZM11.4,7.241,6.79,11.848a.261.261,0,0,1-.369,0L2.793,8.221a.261.261,0,0,1,0-.369L7.4,3.245a.261.261,0,0,1,.369,0L11.4,6.872A.261.261,0,0,1,11.4,7.241Z" transform="translate(0 0)" fill="#fff"/>
        <ellipse id="Ellipse_1-34" data-name="Ellipse 1" cx="1.118" cy="1.118" rx="1.118" ry="1.118" transform="translate(12.079 12.849)" fill="#fff"/>
      </g>
      <g id="Group_3578-3" data-name="Group 3578" transform="translate(88.664)">
        <path id="Path_26-35" data-name="Path 26" d="M563.88-1556.984H553.561a1.5,1.5,0,0,0-1.063.44l-6.534,6.533a1.5,1.5,0,0,0,0,2.125l11.694,11.694a1.5,1.5,0,0,0,2.125,0l11.693-11.694a1.5,1.5,0,0,0,0-2.125l-6.534-6.533A1.5,1.5,0,0,0,563.88-1556.984Zm5.244,8.22-10.218,10.219a.261.261,0,0,1-.37,0l-4.607-4.607a.261.261,0,0,1,0-.369l10.218-10.219a.262.262,0,0,1,.37,0l4.607,4.606A.261.261,0,0,1,569.124-1548.763Zm-7.693-5.49-2.525,2.526a.262.262,0,0,1-.369,0l-2.526-2.526a.261.261,0,0,1,.185-.446h5.052A.261.261,0,0,1,561.431-1554.253Zm-4.51,4.51-4.607,4.607a.261.261,0,0,1-.369,0l-3.628-3.627a.261.261,0,0,1,0-.369l4.607-4.607a.261.261,0,0,1,.369,0l3.627,3.627A.262.262,0,0,1,556.921-1549.743Z" transform="translate(-545.524 1556.984)" fill="#fff"/>
        <ellipse id="Ellipse_1-35" data-name="Ellipse 1" cx="1.118" cy="1.118" rx="1.118" ry="1.118" transform="translate(12.079 12.849)" fill="#fff"/>
      </g>
      <g id="Group_3586-3" data-name="Group 3586" transform="translate(130.071 34.71) rotate(180)">
        <path id="Path_26-36" data-name="Path 26" d="M18.356,0H8.037A1.5,1.5,0,0,0,6.974.44L.44,6.973A1.5,1.5,0,0,0,.44,9.1L12.134,20.792a1.5,1.5,0,0,0,2.126,0L25.953,9.1a1.5,1.5,0,0,0,0-2.126L19.419.44A1.5,1.5,0,0,0,18.356,0ZM23.6,8.221,13.382,18.44a.261.261,0,0,1-.369,0L8.4,13.833a.261.261,0,0,1,0-.369L18.623,3.245a.261.261,0,0,1,.369,0L23.6,7.851A.261.261,0,0,1,23.6,8.221Zm-7.693-5.49L13.382,5.256a.261.261,0,0,1-.369,0L10.486,2.731a.261.261,0,0,1,.185-.446h5.052A.261.261,0,0,1,15.907,2.731ZM11.4,7.241,6.79,11.848a.261.261,0,0,1-.369,0L2.793,8.221a.261.261,0,0,1,0-.369L7.4,3.245a.261.261,0,0,1,.369,0L11.4,6.872A.261.261,0,0,1,11.4,7.241Z" transform="translate(0 0)" fill="#fff"/>
        <ellipse id="Ellipse_1-36" data-name="Ellipse 1" cx="1.118" cy="1.118" rx="1.118" ry="1.118" transform="translate(12.079 12.849)" fill="#fff"/>
      </g>
      <g id="Group_3579-3" data-name="Group 3579" transform="translate(118.219)">
        <path id="Path_26-37" data-name="Path 26" d="M563.88-1556.984H553.561a1.5,1.5,0,0,0-1.063.44l-6.534,6.533a1.5,1.5,0,0,0,0,2.125l11.694,11.694a1.5,1.5,0,0,0,2.125,0l11.693-11.694a1.5,1.5,0,0,0,0-2.125l-6.534-6.533A1.5,1.5,0,0,0,563.88-1556.984Zm5.244,8.22-10.218,10.219a.261.261,0,0,1-.37,0l-4.607-4.607a.261.261,0,0,1,0-.369l10.218-10.219a.262.262,0,0,1,.37,0l4.607,4.606A.261.261,0,0,1,569.124-1548.763Zm-7.693-5.49-2.525,2.526a.262.262,0,0,1-.369,0l-2.526-2.526a.261.261,0,0,1,.185-.446h5.052A.261.261,0,0,1,561.431-1554.253Zm-4.51,4.51-4.607,4.607a.261.261,0,0,1-.369,0l-3.628-3.627a.261.261,0,0,1,0-.369l4.607-4.607a.261.261,0,0,1,.369,0l3.627,3.627A.262.262,0,0,1,556.921-1549.743Z" transform="translate(-545.524 1556.984)" fill="#fff"/>
        <ellipse id="Ellipse_1-37" data-name="Ellipse 1" cx="1.118" cy="1.118" rx="1.118" ry="1.118" transform="translate(12.079 12.849)" fill="#fff"/>
      </g>
      <g id="Group_3587-3" data-name="Group 3587" transform="translate(100.516 34.71) rotate(180)">
        <path id="Path_26-38" data-name="Path 26" d="M18.356,0H8.037A1.5,1.5,0,0,0,6.974.44L.44,6.973A1.5,1.5,0,0,0,.44,9.1L12.134,20.792a1.5,1.5,0,0,0,2.126,0L25.953,9.1a1.5,1.5,0,0,0,0-2.126L19.419.44A1.5,1.5,0,0,0,18.356,0ZM23.6,8.221,13.382,18.44a.261.261,0,0,1-.369,0L8.4,13.833a.261.261,0,0,1,0-.369L18.623,3.245a.261.261,0,0,1,.369,0L23.6,7.851A.261.261,0,0,1,23.6,8.221Zm-7.693-5.49L13.382,5.256a.261.261,0,0,1-.369,0L10.486,2.731a.261.261,0,0,1,.185-.446h5.052A.261.261,0,0,1,15.907,2.731ZM11.4,7.241,6.79,11.848a.261.261,0,0,1-.369,0L2.793,8.221a.261.261,0,0,1,0-.369L7.4,3.245a.261.261,0,0,1,.369,0L11.4,6.872A.261.261,0,0,1,11.4,7.241Z" transform="translate(0 0)" fill="#fff"/>
        <ellipse id="Ellipse_1-38" data-name="Ellipse 1" cx="1.118" cy="1.118" rx="1.118" ry="1.118" transform="translate(12.079 12.849)" fill="#fff"/>
      </g>
      <g id="Group_3580-3" data-name="Group 3580" transform="translate(147.773)">
        <path id="Path_26-39" data-name="Path 26" d="M563.88-1556.984H553.561a1.5,1.5,0,0,0-1.063.44l-6.534,6.533a1.5,1.5,0,0,0,0,2.125l11.694,11.694a1.5,1.5,0,0,0,2.125,0l11.693-11.694a1.5,1.5,0,0,0,0-2.125l-6.534-6.533A1.5,1.5,0,0,0,563.88-1556.984Zm5.244,8.22-10.218,10.219a.261.261,0,0,1-.37,0l-4.607-4.607a.261.261,0,0,1,0-.369l10.218-10.219a.262.262,0,0,1,.37,0l4.607,4.606A.261.261,0,0,1,569.124-1548.763Zm-7.693-5.49-2.525,2.526a.262.262,0,0,1-.369,0l-2.526-2.526a.261.261,0,0,1,.185-.446h5.052A.261.261,0,0,1,561.431-1554.253Zm-4.51,4.51-4.607,4.607a.261.261,0,0,1-.369,0l-3.628-3.627a.261.261,0,0,1,0-.369l4.607-4.607a.261.261,0,0,1,.369,0l3.627,3.627A.262.262,0,0,1,556.921-1549.743Z" transform="translate(-545.524 1556.984)" fill="#fff"/>
        <ellipse id="Ellipse_1-39" data-name="Ellipse 1" cx="1.118" cy="1.118" rx="1.118" ry="1.118" transform="translate(12.079 12.849)" fill="#fff"/>
      </g>
      <g id="Group_3588-3" data-name="Group 3588" transform="translate(70.961 34.71) rotate(180)">
        <path id="Path_26-40" data-name="Path 26" d="M18.356,0H8.037A1.5,1.5,0,0,0,6.974.44L.44,6.973A1.5,1.5,0,0,0,.44,9.1L12.134,20.792a1.5,1.5,0,0,0,2.126,0L25.953,9.1a1.5,1.5,0,0,0,0-2.126L19.419.44A1.5,1.5,0,0,0,18.356,0ZM23.6,8.221,13.382,18.44a.261.261,0,0,1-.369,0L8.4,13.833a.261.261,0,0,1,0-.369L18.623,3.245a.261.261,0,0,1,.369,0L23.6,7.851A.261.261,0,0,1,23.6,8.221Zm-7.693-5.49L13.382,5.256a.261.261,0,0,1-.369,0L10.486,2.731a.261.261,0,0,1,.185-.446h5.052A.261.261,0,0,1,15.907,2.731ZM11.4,7.241,6.79,11.848a.261.261,0,0,1-.369,0L2.793,8.221a.261.261,0,0,1,0-.369L7.4,3.245a.261.261,0,0,1,.369,0L11.4,6.872A.261.261,0,0,1,11.4,7.241Z" transform="translate(0 0)" fill="#fff"/>
        <ellipse id="Ellipse_1-40" data-name="Ellipse 1" cx="1.118" cy="1.118" rx="1.118" ry="1.118" transform="translate(12.079 12.849)" fill="#fff"/>
      </g>
      <g id="Group_3581-3" data-name="Group 3581" transform="translate(177.328)">
        <path id="Path_26-41" data-name="Path 26" d="M563.88-1556.984H553.561a1.5,1.5,0,0,0-1.063.44l-6.534,6.533a1.5,1.5,0,0,0,0,2.125l11.694,11.694a1.5,1.5,0,0,0,2.125,0l11.693-11.694a1.5,1.5,0,0,0,0-2.125l-6.534-6.533A1.5,1.5,0,0,0,563.88-1556.984Zm5.244,8.22-10.218,10.219a.261.261,0,0,1-.37,0l-4.607-4.607a.261.261,0,0,1,0-.369l10.218-10.219a.262.262,0,0,1,.37,0l4.607,4.606A.261.261,0,0,1,569.124-1548.763Zm-7.693-5.49-2.525,2.526a.262.262,0,0,1-.369,0l-2.526-2.526a.261.261,0,0,1,.185-.446h5.052A.261.261,0,0,1,561.431-1554.253Zm-4.51,4.51-4.607,4.607a.261.261,0,0,1-.369,0l-3.628-3.627a.261.261,0,0,1,0-.369l4.607-4.607a.261.261,0,0,1,.369,0l3.627,3.627A.262.262,0,0,1,556.921-1549.743Z" transform="translate(-545.524 1556.984)" fill="#fff"/>
        <ellipse id="Ellipse_1-41" data-name="Ellipse 1" cx="1.118" cy="1.118" rx="1.118" ry="1.118" transform="translate(12.079 12.849)" fill="#fff"/>
      </g>
      <g id="Group_3589-3" data-name="Group 3589" transform="translate(41.407 34.71) rotate(180)">
        <path id="Path_26-42" data-name="Path 26" d="M18.356,0H8.037A1.5,1.5,0,0,0,6.974.44L.44,6.973A1.5,1.5,0,0,0,.44,9.1L12.134,20.792a1.5,1.5,0,0,0,2.126,0L25.953,9.1a1.5,1.5,0,0,0,0-2.126L19.419.44A1.5,1.5,0,0,0,18.356,0ZM23.6,8.221,13.382,18.44a.261.261,0,0,1-.369,0L8.4,13.833a.261.261,0,0,1,0-.369L18.623,3.245a.261.261,0,0,1,.369,0L23.6,7.851A.261.261,0,0,1,23.6,8.221Zm-7.693-5.49L13.382,5.256a.261.261,0,0,1-.369,0L10.486,2.731a.261.261,0,0,1,.185-.446h5.052A.261.261,0,0,1,15.907,2.731ZM11.4,7.241,6.79,11.848a.261.261,0,0,1-.369,0L2.793,8.221a.261.261,0,0,1,0-.369L7.4,3.245a.261.261,0,0,1,.369,0L11.4,6.872A.261.261,0,0,1,11.4,7.241Z" transform="translate(0 0)" fill="#fff"/>
        <ellipse id="Ellipse_1-42" data-name="Ellipse 1" cx="1.118" cy="1.118" rx="1.118" ry="1.118" transform="translate(12.079 12.849)" fill="#fff"/>
      </g>
    </g>
    <g id="Group_3591" data-name="Group 3591" transform="translate(206.832)">
      <g id="Group_4-4" data-name="Group 4" transform="translate(29.555)">
        <path id="Path_26-43" data-name="Path 26" d="M563.88-1556.984H553.561a1.5,1.5,0,0,0-1.063.44l-6.534,6.533a1.5,1.5,0,0,0,0,2.125l11.694,11.694a1.5,1.5,0,0,0,2.125,0l11.693-11.694a1.5,1.5,0,0,0,0-2.125l-6.534-6.533A1.5,1.5,0,0,0,563.88-1556.984Zm5.244,8.22-10.218,10.219a.261.261,0,0,1-.37,0l-4.607-4.607a.261.261,0,0,1,0-.369l10.218-10.219a.262.262,0,0,1,.37,0l4.607,4.606A.261.261,0,0,1,569.124-1548.763Zm-7.693-5.49-2.525,2.526a.262.262,0,0,1-.369,0l-2.526-2.526a.261.261,0,0,1,.185-.446h5.052A.261.261,0,0,1,561.431-1554.253Zm-4.51,4.51-4.607,4.607a.261.261,0,0,1-.369,0l-3.628-3.627a.261.261,0,0,1,0-.369l4.607-4.607a.261.261,0,0,1,.369,0l3.627,3.627A.262.262,0,0,1,556.921-1549.743Z" transform="translate(-545.524 1556.984)" fill="#fff"/>
        <ellipse id="Ellipse_1-43" data-name="Ellipse 1" cx="1.118" cy="1.118" rx="1.118" ry="1.118" transform="translate(12.079 12.849)" fill="#fff"/>
      </g>
      <g id="Group_3584-4" data-name="Group 3584" transform="translate(189.18 34.71) rotate(180)">
        <path id="Path_26-44" data-name="Path 26" d="M18.356,0H8.037A1.5,1.5,0,0,0,6.974.44L.44,6.973A1.5,1.5,0,0,0,.44,9.1L12.134,20.792a1.5,1.5,0,0,0,2.126,0L25.953,9.1a1.5,1.5,0,0,0,0-2.126L19.419.44A1.5,1.5,0,0,0,18.356,0ZM23.6,8.221,13.382,18.44a.261.261,0,0,1-.369,0L8.4,13.833a.261.261,0,0,1,0-.369L18.623,3.245a.261.261,0,0,1,.369,0L23.6,7.851A.261.261,0,0,1,23.6,8.221Zm-7.693-5.49L13.382,5.256a.261.261,0,0,1-.369,0L10.486,2.731a.261.261,0,0,1,.185-.446h5.052A.261.261,0,0,1,15.907,2.731ZM11.4,7.241,6.79,11.848a.261.261,0,0,1-.369,0L2.793,8.221a.261.261,0,0,1,0-.369L7.4,3.245a.261.261,0,0,1,.369,0L11.4,6.872A.261.261,0,0,1,11.4,7.241Z" transform="translate(0 0)" fill="#fff"/>
        <ellipse id="Ellipse_1-44" data-name="Ellipse 1" cx="1.118" cy="1.118" rx="1.118" ry="1.118" transform="translate(12.079 12.849)" fill="#fff"/>
      </g>
      <g id="Group_3582-4" data-name="Group 3582" transform="translate(0)">
        <path id="Path_26-45" data-name="Path 26" d="M563.88-1556.984H553.561a1.5,1.5,0,0,0-1.063.44l-6.534,6.533a1.5,1.5,0,0,0,0,2.125l11.694,11.694a1.5,1.5,0,0,0,2.125,0l11.693-11.694a1.5,1.5,0,0,0,0-2.125l-6.534-6.533A1.5,1.5,0,0,0,563.88-1556.984Zm5.244,8.22-10.218,10.219a.261.261,0,0,1-.37,0l-4.607-4.607a.261.261,0,0,1,0-.369l10.218-10.219a.262.262,0,0,1,.37,0l4.607,4.606A.261.261,0,0,1,569.124-1548.763Zm-7.693-5.49-2.525,2.526a.262.262,0,0,1-.369,0l-2.526-2.526a.261.261,0,0,1,.185-.446h5.052A.261.261,0,0,1,561.431-1554.253Zm-4.51,4.51-4.607,4.607a.261.261,0,0,1-.369,0l-3.628-3.627a.261.261,0,0,1,0-.369l4.607-4.607a.261.261,0,0,1,.369,0l3.627,3.627A.262.262,0,0,1,556.921-1549.743Z" transform="translate(-545.524 1556.984)" fill="#fff"/>
        <ellipse id="Ellipse_1-45" data-name="Ellipse 1" cx="1.118" cy="1.118" rx="1.118" ry="1.118" transform="translate(12.079 12.849)" fill="#fff"/>
      </g>
      <g id="Group_3583-4" data-name="Group 3583" transform="translate(218.735 34.71) rotate(180)">
        <path id="Path_26-46" data-name="Path 26" d="M18.356,0H8.037A1.5,1.5,0,0,0,6.974.44L.44,6.973A1.5,1.5,0,0,0,.44,9.1L12.134,20.792a1.5,1.5,0,0,0,2.126,0L25.953,9.1a1.5,1.5,0,0,0,0-2.126L19.419.44A1.5,1.5,0,0,0,18.356,0ZM23.6,8.221,13.382,18.44a.261.261,0,0,1-.369,0L8.4,13.833a.261.261,0,0,1,0-.369L18.623,3.245a.261.261,0,0,1,.369,0L23.6,7.851A.261.261,0,0,1,23.6,8.221Zm-7.693-5.49L13.382,5.256a.261.261,0,0,1-.369,0L10.486,2.731a.261.261,0,0,1,.185-.446h5.052A.261.261,0,0,1,15.907,2.731ZM11.4,7.241,6.79,11.848a.261.261,0,0,1-.369,0L2.793,8.221a.261.261,0,0,1,0-.369L7.4,3.245a.261.261,0,0,1,.369,0L11.4,6.872A.261.261,0,0,1,11.4,7.241Z" transform="translate(0 0)" fill="#fff"/>
        <ellipse id="Ellipse_1-46" data-name="Ellipse 1" cx="1.118" cy="1.118" rx="1.118" ry="1.118" transform="translate(12.079 12.849)" fill="#fff"/>
      </g>
      <g id="Group_3577-4" data-name="Group 3577" transform="translate(59.109)">
        <path id="Path_26-47" data-name="Path 26" d="M563.88-1556.984H553.561a1.5,1.5,0,0,0-1.063.44l-6.534,6.533a1.5,1.5,0,0,0,0,2.125l11.694,11.694a1.5,1.5,0,0,0,2.125,0l11.693-11.694a1.5,1.5,0,0,0,0-2.125l-6.534-6.533A1.5,1.5,0,0,0,563.88-1556.984Zm5.244,8.22-10.218,10.219a.261.261,0,0,1-.37,0l-4.607-4.607a.261.261,0,0,1,0-.369l10.218-10.219a.262.262,0,0,1,.37,0l4.607,4.606A.261.261,0,0,1,569.124-1548.763Zm-7.693-5.49-2.525,2.526a.262.262,0,0,1-.369,0l-2.526-2.526a.261.261,0,0,1,.185-.446h5.052A.261.261,0,0,1,561.431-1554.253Zm-4.51,4.51-4.607,4.607a.261.261,0,0,1-.369,0l-3.628-3.627a.261.261,0,0,1,0-.369l4.607-4.607a.261.261,0,0,1,.369,0l3.627,3.627A.262.262,0,0,1,556.921-1549.743Z" transform="translate(-545.524 1556.984)" fill="#fff"/>
        <ellipse id="Ellipse_1-47" data-name="Ellipse 1" cx="1.118" cy="1.118" rx="1.118" ry="1.118" transform="translate(12.079 12.849)" fill="#fff"/>
      </g>
      <g id="Group_3585-4" data-name="Group 3585" transform="translate(159.625 34.71) rotate(180)">
        <path id="Path_26-48" data-name="Path 26" d="M18.356,0H8.037A1.5,1.5,0,0,0,6.974.44L.44,6.973A1.5,1.5,0,0,0,.44,9.1L12.134,20.792a1.5,1.5,0,0,0,2.126,0L25.953,9.1a1.5,1.5,0,0,0,0-2.126L19.419.44A1.5,1.5,0,0,0,18.356,0ZM23.6,8.221,13.382,18.44a.261.261,0,0,1-.369,0L8.4,13.833a.261.261,0,0,1,0-.369L18.623,3.245a.261.261,0,0,1,.369,0L23.6,7.851A.261.261,0,0,1,23.6,8.221Zm-7.693-5.49L13.382,5.256a.261.261,0,0,1-.369,0L10.486,2.731a.261.261,0,0,1,.185-.446h5.052A.261.261,0,0,1,15.907,2.731ZM11.4,7.241,6.79,11.848a.261.261,0,0,1-.369,0L2.793,8.221a.261.261,0,0,1,0-.369L7.4,3.245a.261.261,0,0,1,.369,0L11.4,6.872A.261.261,0,0,1,11.4,7.241Z" transform="translate(0 0)" fill="#fff"/>
        <ellipse id="Ellipse_1-48" data-name="Ellipse 1" cx="1.118" cy="1.118" rx="1.118" ry="1.118" transform="translate(12.079 12.849)" fill="#fff"/>
      </g>
      <g id="Group_3578-4" data-name="Group 3578" transform="translate(88.664)">
        <path id="Path_26-49" data-name="Path 26" d="M563.88-1556.984H553.561a1.5,1.5,0,0,0-1.063.44l-6.534,6.533a1.5,1.5,0,0,0,0,2.125l11.694,11.694a1.5,1.5,0,0,0,2.125,0l11.693-11.694a1.5,1.5,0,0,0,0-2.125l-6.534-6.533A1.5,1.5,0,0,0,563.88-1556.984Zm5.244,8.22-10.218,10.219a.261.261,0,0,1-.37,0l-4.607-4.607a.261.261,0,0,1,0-.369l10.218-10.219a.262.262,0,0,1,.37,0l4.607,4.606A.261.261,0,0,1,569.124-1548.763Zm-7.693-5.49-2.525,2.526a.262.262,0,0,1-.369,0l-2.526-2.526a.261.261,0,0,1,.185-.446h5.052A.261.261,0,0,1,561.431-1554.253Zm-4.51,4.51-4.607,4.607a.261.261,0,0,1-.369,0l-3.628-3.627a.261.261,0,0,1,0-.369l4.607-4.607a.261.261,0,0,1,.369,0l3.627,3.627A.262.262,0,0,1,556.921-1549.743Z" transform="translate(-545.524 1556.984)" fill="#fff"/>
        <ellipse id="Ellipse_1-49" data-name="Ellipse 1" cx="1.118" cy="1.118" rx="1.118" ry="1.118" transform="translate(12.079 12.849)" fill="#fff"/>
      </g>
      <g id="Group_3586-4" data-name="Group 3586" transform="translate(130.071 34.71) rotate(180)">
        <path id="Path_26-50" data-name="Path 26" d="M18.356,0H8.037A1.5,1.5,0,0,0,6.974.44L.44,6.973A1.5,1.5,0,0,0,.44,9.1L12.134,20.792a1.5,1.5,0,0,0,2.126,0L25.953,9.1a1.5,1.5,0,0,0,0-2.126L19.419.44A1.5,1.5,0,0,0,18.356,0ZM23.6,8.221,13.382,18.44a.261.261,0,0,1-.369,0L8.4,13.833a.261.261,0,0,1,0-.369L18.623,3.245a.261.261,0,0,1,.369,0L23.6,7.851A.261.261,0,0,1,23.6,8.221Zm-7.693-5.49L13.382,5.256a.261.261,0,0,1-.369,0L10.486,2.731a.261.261,0,0,1,.185-.446h5.052A.261.261,0,0,1,15.907,2.731ZM11.4,7.241,6.79,11.848a.261.261,0,0,1-.369,0L2.793,8.221a.261.261,0,0,1,0-.369L7.4,3.245a.261.261,0,0,1,.369,0L11.4,6.872A.261.261,0,0,1,11.4,7.241Z" transform="translate(0 0)" fill="#fff"/>
        <ellipse id="Ellipse_1-50" data-name="Ellipse 1" cx="1.118" cy="1.118" rx="1.118" ry="1.118" transform="translate(12.079 12.849)" fill="#fff"/>
      </g>
      <g id="Group_3579-4" data-name="Group 3579" transform="translate(118.219)">
        <path id="Path_26-51" data-name="Path 26" d="M563.88-1556.984H553.561a1.5,1.5,0,0,0-1.063.44l-6.534,6.533a1.5,1.5,0,0,0,0,2.125l11.694,11.694a1.5,1.5,0,0,0,2.125,0l11.693-11.694a1.5,1.5,0,0,0,0-2.125l-6.534-6.533A1.5,1.5,0,0,0,563.88-1556.984Zm5.244,8.22-10.218,10.219a.261.261,0,0,1-.37,0l-4.607-4.607a.261.261,0,0,1,0-.369l10.218-10.219a.262.262,0,0,1,.37,0l4.607,4.606A.261.261,0,0,1,569.124-1548.763Zm-7.693-5.49-2.525,2.526a.262.262,0,0,1-.369,0l-2.526-2.526a.261.261,0,0,1,.185-.446h5.052A.261.261,0,0,1,561.431-1554.253Zm-4.51,4.51-4.607,4.607a.261.261,0,0,1-.369,0l-3.628-3.627a.261.261,0,0,1,0-.369l4.607-4.607a.261.261,0,0,1,.369,0l3.627,3.627A.262.262,0,0,1,556.921-1549.743Z" transform="translate(-545.524 1556.984)" fill="#fff"/>
        <ellipse id="Ellipse_1-51" data-name="Ellipse 1" cx="1.118" cy="1.118" rx="1.118" ry="1.118" transform="translate(12.079 12.849)" fill="#fff"/>
      </g>
      <g id="Group_3587-4" data-name="Group 3587" transform="translate(100.516 34.71) rotate(180)">
        <path id="Path_26-52" data-name="Path 26" d="M18.356,0H8.037A1.5,1.5,0,0,0,6.974.44L.44,6.973A1.5,1.5,0,0,0,.44,9.1L12.134,20.792a1.5,1.5,0,0,0,2.126,0L25.953,9.1a1.5,1.5,0,0,0,0-2.126L19.419.44A1.5,1.5,0,0,0,18.356,0ZM23.6,8.221,13.382,18.44a.261.261,0,0,1-.369,0L8.4,13.833a.261.261,0,0,1,0-.369L18.623,3.245a.261.261,0,0,1,.369,0L23.6,7.851A.261.261,0,0,1,23.6,8.221Zm-7.693-5.49L13.382,5.256a.261.261,0,0,1-.369,0L10.486,2.731a.261.261,0,0,1,.185-.446h5.052A.261.261,0,0,1,15.907,2.731ZM11.4,7.241,6.79,11.848a.261.261,0,0,1-.369,0L2.793,8.221a.261.261,0,0,1,0-.369L7.4,3.245a.261.261,0,0,1,.369,0L11.4,6.872A.261.261,0,0,1,11.4,7.241Z" transform="translate(0 0)" fill="#fff"/>
        <ellipse id="Ellipse_1-52" data-name="Ellipse 1" cx="1.118" cy="1.118" rx="1.118" ry="1.118" transform="translate(12.079 12.849)" fill="#fff"/>
      </g>
      <g id="Group_3580-4" data-name="Group 3580" transform="translate(147.773)">
        <path id="Path_26-53" data-name="Path 26" d="M563.88-1556.984H553.561a1.5,1.5,0,0,0-1.063.44l-6.534,6.533a1.5,1.5,0,0,0,0,2.125l11.694,11.694a1.5,1.5,0,0,0,2.125,0l11.693-11.694a1.5,1.5,0,0,0,0-2.125l-6.534-6.533A1.5,1.5,0,0,0,563.88-1556.984Zm5.244,8.22-10.218,10.219a.261.261,0,0,1-.37,0l-4.607-4.607a.261.261,0,0,1,0-.369l10.218-10.219a.262.262,0,0,1,.37,0l4.607,4.606A.261.261,0,0,1,569.124-1548.763Zm-7.693-5.49-2.525,2.526a.262.262,0,0,1-.369,0l-2.526-2.526a.261.261,0,0,1,.185-.446h5.052A.261.261,0,0,1,561.431-1554.253Zm-4.51,4.51-4.607,4.607a.261.261,0,0,1-.369,0l-3.628-3.627a.261.261,0,0,1,0-.369l4.607-4.607a.261.261,0,0,1,.369,0l3.627,3.627A.262.262,0,0,1,556.921-1549.743Z" transform="translate(-545.524 1556.984)" fill="#fff"/>
        <ellipse id="Ellipse_1-53" data-name="Ellipse 1" cx="1.118" cy="1.118" rx="1.118" ry="1.118" transform="translate(12.079 12.849)" fill="#fff"/>
      </g>
      <g id="Group_3588-4" data-name="Group 3588" transform="translate(70.961 34.71) rotate(180)">
        <path id="Path_26-54" data-name="Path 26" d="M18.356,0H8.037A1.5,1.5,0,0,0,6.974.44L.44,6.973A1.5,1.5,0,0,0,.44,9.1L12.134,20.792a1.5,1.5,0,0,0,2.126,0L25.953,9.1a1.5,1.5,0,0,0,0-2.126L19.419.44A1.5,1.5,0,0,0,18.356,0ZM23.6,8.221,13.382,18.44a.261.261,0,0,1-.369,0L8.4,13.833a.261.261,0,0,1,0-.369L18.623,3.245a.261.261,0,0,1,.369,0L23.6,7.851A.261.261,0,0,1,23.6,8.221Zm-7.693-5.49L13.382,5.256a.261.261,0,0,1-.369,0L10.486,2.731a.261.261,0,0,1,.185-.446h5.052A.261.261,0,0,1,15.907,2.731ZM11.4,7.241,6.79,11.848a.261.261,0,0,1-.369,0L2.793,8.221a.261.261,0,0,1,0-.369L7.4,3.245a.261.261,0,0,1,.369,0L11.4,6.872A.261.261,0,0,1,11.4,7.241Z" transform="translate(0 0)" fill="#fff"/>
        <ellipse id="Ellipse_1-54" data-name="Ellipse 1" cx="1.118" cy="1.118" rx="1.118" ry="1.118" transform="translate(12.079 12.849)" fill="#fff"/>
      </g>
      <g id="Group_3581-4" data-name="Group 3581" transform="translate(177.328)">
        <path id="Path_26-55" data-name="Path 26" d="M563.88-1556.984H553.561a1.5,1.5,0,0,0-1.063.44l-6.534,6.533a1.5,1.5,0,0,0,0,2.125l11.694,11.694a1.5,1.5,0,0,0,2.125,0l11.693-11.694a1.5,1.5,0,0,0,0-2.125l-6.534-6.533A1.5,1.5,0,0,0,563.88-1556.984Zm5.244,8.22-10.218,10.219a.261.261,0,0,1-.37,0l-4.607-4.607a.261.261,0,0,1,0-.369l10.218-10.219a.262.262,0,0,1,.37,0l4.607,4.606A.261.261,0,0,1,569.124-1548.763Zm-7.693-5.49-2.525,2.526a.262.262,0,0,1-.369,0l-2.526-2.526a.261.261,0,0,1,.185-.446h5.052A.261.261,0,0,1,561.431-1554.253Zm-4.51,4.51-4.607,4.607a.261.261,0,0,1-.369,0l-3.628-3.627a.261.261,0,0,1,0-.369l4.607-4.607a.261.261,0,0,1,.369,0l3.627,3.627A.262.262,0,0,1,556.921-1549.743Z" transform="translate(-545.524 1556.984)" fill="#fff"/>
        <ellipse id="Ellipse_1-55" data-name="Ellipse 1" cx="1.118" cy="1.118" rx="1.118" ry="1.118" transform="translate(12.079 12.849)" fill="#fff"/>
      </g>
      <g id="Group_3589-4" data-name="Group 3589" transform="translate(41.407 34.71) rotate(180)">
        <path id="Path_26-56" data-name="Path 26" d="M18.356,0H8.037A1.5,1.5,0,0,0,6.974.44L.44,6.973A1.5,1.5,0,0,0,.44,9.1L12.134,20.792a1.5,1.5,0,0,0,2.126,0L25.953,9.1a1.5,1.5,0,0,0,0-2.126L19.419.44A1.5,1.5,0,0,0,18.356,0ZM23.6,8.221,13.382,18.44a.261.261,0,0,1-.369,0L8.4,13.833a.261.261,0,0,1,0-.369L18.623,3.245a.261.261,0,0,1,.369,0L23.6,7.851A.261.261,0,0,1,23.6,8.221Zm-7.693-5.49L13.382,5.256a.261.261,0,0,1-.369,0L10.486,2.731a.261.261,0,0,1,.185-.446h5.052A.261.261,0,0,1,15.907,2.731ZM11.4,7.241,6.79,11.848a.261.261,0,0,1-.369,0L2.793,8.221a.261.261,0,0,1,0-.369L7.4,3.245a.261.261,0,0,1,.369,0L11.4,6.872A.261.261,0,0,1,11.4,7.241Z" transform="translate(0 0)" fill="#fff"/>
        <ellipse id="Ellipse_1-56" data-name="Ellipse 1" cx="1.118" cy="1.118" rx="1.118" ry="1.118" transform="translate(12.079 12.849)" fill="#fff"/>
      </g>
    </g>
    <g id="Group_3592" data-name="Group 3592" transform="translate(206.832 34.71)">
      <g id="Group_4-5" data-name="Group 4" transform="translate(29.555)">
        <path id="Path_26-57" data-name="Path 26" d="M563.88-1556.984H553.561a1.5,1.5,0,0,0-1.063.44l-6.534,6.533a1.5,1.5,0,0,0,0,2.125l11.694,11.694a1.5,1.5,0,0,0,2.125,0l11.693-11.694a1.5,1.5,0,0,0,0-2.125l-6.534-6.533A1.5,1.5,0,0,0,563.88-1556.984Zm5.244,8.22-10.218,10.219a.261.261,0,0,1-.37,0l-4.607-4.607a.261.261,0,0,1,0-.369l10.218-10.219a.262.262,0,0,1,.37,0l4.607,4.606A.261.261,0,0,1,569.124-1548.763Zm-7.693-5.49-2.525,2.526a.262.262,0,0,1-.369,0l-2.526-2.526a.261.261,0,0,1,.185-.446h5.052A.261.261,0,0,1,561.431-1554.253Zm-4.51,4.51-4.607,4.607a.261.261,0,0,1-.369,0l-3.628-3.627a.261.261,0,0,1,0-.369l4.607-4.607a.261.261,0,0,1,.369,0l3.627,3.627A.262.262,0,0,1,556.921-1549.743Z" transform="translate(-545.524 1556.984)" fill="#fff"/>
        <ellipse id="Ellipse_1-57" data-name="Ellipse 1" cx="1.118" cy="1.118" rx="1.118" ry="1.118" transform="translate(12.079 12.849)" fill="#fff"/>
      </g>
      <g id="Group_3584-5" data-name="Group 3584" transform="translate(189.18 34.71) rotate(180)">
        <path id="Path_26-58" data-name="Path 26" d="M18.356,0H8.037A1.5,1.5,0,0,0,6.974.44L.44,6.973A1.5,1.5,0,0,0,.44,9.1L12.134,20.792a1.5,1.5,0,0,0,2.126,0L25.953,9.1a1.5,1.5,0,0,0,0-2.126L19.419.44A1.5,1.5,0,0,0,18.356,0ZM23.6,8.221,13.382,18.44a.261.261,0,0,1-.369,0L8.4,13.833a.261.261,0,0,1,0-.369L18.623,3.245a.261.261,0,0,1,.369,0L23.6,7.851A.261.261,0,0,1,23.6,8.221Zm-7.693-5.49L13.382,5.256a.261.261,0,0,1-.369,0L10.486,2.731a.261.261,0,0,1,.185-.446h5.052A.261.261,0,0,1,15.907,2.731ZM11.4,7.241,6.79,11.848a.261.261,0,0,1-.369,0L2.793,8.221a.261.261,0,0,1,0-.369L7.4,3.245a.261.261,0,0,1,.369,0L11.4,6.872A.261.261,0,0,1,11.4,7.241Z" transform="translate(0 0)" fill="#fff"/>
        <ellipse id="Ellipse_1-58" data-name="Ellipse 1" cx="1.118" cy="1.118" rx="1.118" ry="1.118" transform="translate(12.079 12.849)" fill="#fff"/>
      </g>
      <g id="Group_3582-5" data-name="Group 3582" transform="translate(0)">
        <path id="Path_26-59" data-name="Path 26" d="M563.88-1556.984H553.561a1.5,1.5,0,0,0-1.063.44l-6.534,6.533a1.5,1.5,0,0,0,0,2.125l11.694,11.694a1.5,1.5,0,0,0,2.125,0l11.693-11.694a1.5,1.5,0,0,0,0-2.125l-6.534-6.533A1.5,1.5,0,0,0,563.88-1556.984Zm5.244,8.22-10.218,10.219a.261.261,0,0,1-.37,0l-4.607-4.607a.261.261,0,0,1,0-.369l10.218-10.219a.262.262,0,0,1,.37,0l4.607,4.606A.261.261,0,0,1,569.124-1548.763Zm-7.693-5.49-2.525,2.526a.262.262,0,0,1-.369,0l-2.526-2.526a.261.261,0,0,1,.185-.446h5.052A.261.261,0,0,1,561.431-1554.253Zm-4.51,4.51-4.607,4.607a.261.261,0,0,1-.369,0l-3.628-3.627a.261.261,0,0,1,0-.369l4.607-4.607a.261.261,0,0,1,.369,0l3.627,3.627A.262.262,0,0,1,556.921-1549.743Z" transform="translate(-545.524 1556.984)" fill="#fff"/>
        <ellipse id="Ellipse_1-59" data-name="Ellipse 1" cx="1.118" cy="1.118" rx="1.118" ry="1.118" transform="translate(12.079 12.849)" fill="#fff"/>
      </g>
      <g id="Group_3583-5" data-name="Group 3583" transform="translate(218.735 34.71) rotate(180)">
        <path id="Path_26-60" data-name="Path 26" d="M18.356,0H8.037A1.5,1.5,0,0,0,6.974.44L.44,6.973A1.5,1.5,0,0,0,.44,9.1L12.134,20.792a1.5,1.5,0,0,0,2.126,0L25.953,9.1a1.5,1.5,0,0,0,0-2.126L19.419.44A1.5,1.5,0,0,0,18.356,0ZM23.6,8.221,13.382,18.44a.261.261,0,0,1-.369,0L8.4,13.833a.261.261,0,0,1,0-.369L18.623,3.245a.261.261,0,0,1,.369,0L23.6,7.851A.261.261,0,0,1,23.6,8.221Zm-7.693-5.49L13.382,5.256a.261.261,0,0,1-.369,0L10.486,2.731a.261.261,0,0,1,.185-.446h5.052A.261.261,0,0,1,15.907,2.731ZM11.4,7.241,6.79,11.848a.261.261,0,0,1-.369,0L2.793,8.221a.261.261,0,0,1,0-.369L7.4,3.245a.261.261,0,0,1,.369,0L11.4,6.872A.261.261,0,0,1,11.4,7.241Z" transform="translate(0 0)" fill="#fff"/>
        <ellipse id="Ellipse_1-60" data-name="Ellipse 1" cx="1.118" cy="1.118" rx="1.118" ry="1.118" transform="translate(12.079 12.849)" fill="#fff"/>
      </g>
      <g id="Group_3577-5" data-name="Group 3577" transform="translate(59.109)">
        <path id="Path_26-61" data-name="Path 26" d="M563.88-1556.984H553.561a1.5,1.5,0,0,0-1.063.44l-6.534,6.533a1.5,1.5,0,0,0,0,2.125l11.694,11.694a1.5,1.5,0,0,0,2.125,0l11.693-11.694a1.5,1.5,0,0,0,0-2.125l-6.534-6.533A1.5,1.5,0,0,0,563.88-1556.984Zm5.244,8.22-10.218,10.219a.261.261,0,0,1-.37,0l-4.607-4.607a.261.261,0,0,1,0-.369l10.218-10.219a.262.262,0,0,1,.37,0l4.607,4.606A.261.261,0,0,1,569.124-1548.763Zm-7.693-5.49-2.525,2.526a.262.262,0,0,1-.369,0l-2.526-2.526a.261.261,0,0,1,.185-.446h5.052A.261.261,0,0,1,561.431-1554.253Zm-4.51,4.51-4.607,4.607a.261.261,0,0,1-.369,0l-3.628-3.627a.261.261,0,0,1,0-.369l4.607-4.607a.261.261,0,0,1,.369,0l3.627,3.627A.262.262,0,0,1,556.921-1549.743Z" transform="translate(-545.524 1556.984)" fill="#fff"/>
        <ellipse id="Ellipse_1-61" data-name="Ellipse 1" cx="1.118" cy="1.118" rx="1.118" ry="1.118" transform="translate(12.079 12.849)" fill="#fff"/>
      </g>
      <g id="Group_3585-5" data-name="Group 3585" transform="translate(159.625 34.71) rotate(180)">
        <path id="Path_26-62" data-name="Path 26" d="M18.356,0H8.037A1.5,1.5,0,0,0,6.974.44L.44,6.973A1.5,1.5,0,0,0,.44,9.1L12.134,20.792a1.5,1.5,0,0,0,2.126,0L25.953,9.1a1.5,1.5,0,0,0,0-2.126L19.419.44A1.5,1.5,0,0,0,18.356,0ZM23.6,8.221,13.382,18.44a.261.261,0,0,1-.369,0L8.4,13.833a.261.261,0,0,1,0-.369L18.623,3.245a.261.261,0,0,1,.369,0L23.6,7.851A.261.261,0,0,1,23.6,8.221Zm-7.693-5.49L13.382,5.256a.261.261,0,0,1-.369,0L10.486,2.731a.261.261,0,0,1,.185-.446h5.052A.261.261,0,0,1,15.907,2.731ZM11.4,7.241,6.79,11.848a.261.261,0,0,1-.369,0L2.793,8.221a.261.261,0,0,1,0-.369L7.4,3.245a.261.261,0,0,1,.369,0L11.4,6.872A.261.261,0,0,1,11.4,7.241Z" transform="translate(0 0)" fill="#fff"/>
        <ellipse id="Ellipse_1-62" data-name="Ellipse 1" cx="1.118" cy="1.118" rx="1.118" ry="1.118" transform="translate(12.079 12.849)" fill="#fff"/>
      </g>
      <g id="Group_3578-5" data-name="Group 3578" transform="translate(88.664)">
        <path id="Path_26-63" data-name="Path 26" d="M563.88-1556.984H553.561a1.5,1.5,0,0,0-1.063.44l-6.534,6.533a1.5,1.5,0,0,0,0,2.125l11.694,11.694a1.5,1.5,0,0,0,2.125,0l11.693-11.694a1.5,1.5,0,0,0,0-2.125l-6.534-6.533A1.5,1.5,0,0,0,563.88-1556.984Zm5.244,8.22-10.218,10.219a.261.261,0,0,1-.37,0l-4.607-4.607a.261.261,0,0,1,0-.369l10.218-10.219a.262.262,0,0,1,.37,0l4.607,4.606A.261.261,0,0,1,569.124-1548.763Zm-7.693-5.49-2.525,2.526a.262.262,0,0,1-.369,0l-2.526-2.526a.261.261,0,0,1,.185-.446h5.052A.261.261,0,0,1,561.431-1554.253Zm-4.51,4.51-4.607,4.607a.261.261,0,0,1-.369,0l-3.628-3.627a.261.261,0,0,1,0-.369l4.607-4.607a.261.261,0,0,1,.369,0l3.627,3.627A.262.262,0,0,1,556.921-1549.743Z" transform="translate(-545.524 1556.984)" fill="#fff"/>
        <ellipse id="Ellipse_1-63" data-name="Ellipse 1" cx="1.118" cy="1.118" rx="1.118" ry="1.118" transform="translate(12.079 12.849)" fill="#fff"/>
      </g>
      <g id="Group_3586-5" data-name="Group 3586" transform="translate(130.071 34.71) rotate(180)">
        <path id="Path_26-64" data-name="Path 26" d="M18.356,0H8.037A1.5,1.5,0,0,0,6.974.44L.44,6.973A1.5,1.5,0,0,0,.44,9.1L12.134,20.792a1.5,1.5,0,0,0,2.126,0L25.953,9.1a1.5,1.5,0,0,0,0-2.126L19.419.44A1.5,1.5,0,0,0,18.356,0ZM23.6,8.221,13.382,18.44a.261.261,0,0,1-.369,0L8.4,13.833a.261.261,0,0,1,0-.369L18.623,3.245a.261.261,0,0,1,.369,0L23.6,7.851A.261.261,0,0,1,23.6,8.221Zm-7.693-5.49L13.382,5.256a.261.261,0,0,1-.369,0L10.486,2.731a.261.261,0,0,1,.185-.446h5.052A.261.261,0,0,1,15.907,2.731ZM11.4,7.241,6.79,11.848a.261.261,0,0,1-.369,0L2.793,8.221a.261.261,0,0,1,0-.369L7.4,3.245a.261.261,0,0,1,.369,0L11.4,6.872A.261.261,0,0,1,11.4,7.241Z" transform="translate(0 0)" fill="#fff"/>
        <ellipse id="Ellipse_1-64" data-name="Ellipse 1" cx="1.118" cy="1.118" rx="1.118" ry="1.118" transform="translate(12.079 12.849)" fill="#fff"/>
      </g>
      <g id="Group_3579-5" data-name="Group 3579" transform="translate(118.219)">
        <path id="Path_26-65" data-name="Path 26" d="M563.88-1556.984H553.561a1.5,1.5,0,0,0-1.063.44l-6.534,6.533a1.5,1.5,0,0,0,0,2.125l11.694,11.694a1.5,1.5,0,0,0,2.125,0l11.693-11.694a1.5,1.5,0,0,0,0-2.125l-6.534-6.533A1.5,1.5,0,0,0,563.88-1556.984Zm5.244,8.22-10.218,10.219a.261.261,0,0,1-.37,0l-4.607-4.607a.261.261,0,0,1,0-.369l10.218-10.219a.262.262,0,0,1,.37,0l4.607,4.606A.261.261,0,0,1,569.124-1548.763Zm-7.693-5.49-2.525,2.526a.262.262,0,0,1-.369,0l-2.526-2.526a.261.261,0,0,1,.185-.446h5.052A.261.261,0,0,1,561.431-1554.253Zm-4.51,4.51-4.607,4.607a.261.261,0,0,1-.369,0l-3.628-3.627a.261.261,0,0,1,0-.369l4.607-4.607a.261.261,0,0,1,.369,0l3.627,3.627A.262.262,0,0,1,556.921-1549.743Z" transform="translate(-545.524 1556.984)" fill="#fff"/>
        <ellipse id="Ellipse_1-65" data-name="Ellipse 1" cx="1.118" cy="1.118" rx="1.118" ry="1.118" transform="translate(12.079 12.849)" fill="#fff"/>
      </g>
      <g id="Group_3587-5" data-name="Group 3587" transform="translate(100.516 34.71) rotate(180)">
        <path id="Path_26-66" data-name="Path 26" d="M18.356,0H8.037A1.5,1.5,0,0,0,6.974.44L.44,6.973A1.5,1.5,0,0,0,.44,9.1L12.134,20.792a1.5,1.5,0,0,0,2.126,0L25.953,9.1a1.5,1.5,0,0,0,0-2.126L19.419.44A1.5,1.5,0,0,0,18.356,0ZM23.6,8.221,13.382,18.44a.261.261,0,0,1-.369,0L8.4,13.833a.261.261,0,0,1,0-.369L18.623,3.245a.261.261,0,0,1,.369,0L23.6,7.851A.261.261,0,0,1,23.6,8.221Zm-7.693-5.49L13.382,5.256a.261.261,0,0,1-.369,0L10.486,2.731a.261.261,0,0,1,.185-.446h5.052A.261.261,0,0,1,15.907,2.731ZM11.4,7.241,6.79,11.848a.261.261,0,0,1-.369,0L2.793,8.221a.261.261,0,0,1,0-.369L7.4,3.245a.261.261,0,0,1,.369,0L11.4,6.872A.261.261,0,0,1,11.4,7.241Z" transform="translate(0 0)" fill="#fff"/>
        <ellipse id="Ellipse_1-66" data-name="Ellipse 1" cx="1.118" cy="1.118" rx="1.118" ry="1.118" transform="translate(12.079 12.849)" fill="#fff"/>
      </g>
      <g id="Group_3580-5" data-name="Group 3580" transform="translate(147.773)">
        <path id="Path_26-67" data-name="Path 26" d="M563.88-1556.984H553.561a1.5,1.5,0,0,0-1.063.44l-6.534,6.533a1.5,1.5,0,0,0,0,2.125l11.694,11.694a1.5,1.5,0,0,0,2.125,0l11.693-11.694a1.5,1.5,0,0,0,0-2.125l-6.534-6.533A1.5,1.5,0,0,0,563.88-1556.984Zm5.244,8.22-10.218,10.219a.261.261,0,0,1-.37,0l-4.607-4.607a.261.261,0,0,1,0-.369l10.218-10.219a.262.262,0,0,1,.37,0l4.607,4.606A.261.261,0,0,1,569.124-1548.763Zm-7.693-5.49-2.525,2.526a.262.262,0,0,1-.369,0l-2.526-2.526a.261.261,0,0,1,.185-.446h5.052A.261.261,0,0,1,561.431-1554.253Zm-4.51,4.51-4.607,4.607a.261.261,0,0,1-.369,0l-3.628-3.627a.261.261,0,0,1,0-.369l4.607-4.607a.261.261,0,0,1,.369,0l3.627,3.627A.262.262,0,0,1,556.921-1549.743Z" transform="translate(-545.524 1556.984)" fill="#fff"/>
        <ellipse id="Ellipse_1-67" data-name="Ellipse 1" cx="1.118" cy="1.118" rx="1.118" ry="1.118" transform="translate(12.079 12.849)" fill="#fff"/>
      </g>
      <g id="Group_3588-5" data-name="Group 3588" transform="translate(70.961 34.71) rotate(180)">
        <path id="Path_26-68" data-name="Path 26" d="M18.356,0H8.037A1.5,1.5,0,0,0,6.974.44L.44,6.973A1.5,1.5,0,0,0,.44,9.1L12.134,20.792a1.5,1.5,0,0,0,2.126,0L25.953,9.1a1.5,1.5,0,0,0,0-2.126L19.419.44A1.5,1.5,0,0,0,18.356,0ZM23.6,8.221,13.382,18.44a.261.261,0,0,1-.369,0L8.4,13.833a.261.261,0,0,1,0-.369L18.623,3.245a.261.261,0,0,1,.369,0L23.6,7.851A.261.261,0,0,1,23.6,8.221Zm-7.693-5.49L13.382,5.256a.261.261,0,0,1-.369,0L10.486,2.731a.261.261,0,0,1,.185-.446h5.052A.261.261,0,0,1,15.907,2.731ZM11.4,7.241,6.79,11.848a.261.261,0,0,1-.369,0L2.793,8.221a.261.261,0,0,1,0-.369L7.4,3.245a.261.261,0,0,1,.369,0L11.4,6.872A.261.261,0,0,1,11.4,7.241Z" transform="translate(0 0)" fill="#fff"/>
        <ellipse id="Ellipse_1-68" data-name="Ellipse 1" cx="1.118" cy="1.118" rx="1.118" ry="1.118" transform="translate(12.079 12.849)" fill="#fff"/>
      </g>
      <g id="Group_3581-5" data-name="Group 3581" transform="translate(177.328)">
        <path id="Path_26-69" data-name="Path 26" d="M563.88-1556.984H553.561a1.5,1.5,0,0,0-1.063.44l-6.534,6.533a1.5,1.5,0,0,0,0,2.125l11.694,11.694a1.5,1.5,0,0,0,2.125,0l11.693-11.694a1.5,1.5,0,0,0,0-2.125l-6.534-6.533A1.5,1.5,0,0,0,563.88-1556.984Zm5.244,8.22-10.218,10.219a.261.261,0,0,1-.37,0l-4.607-4.607a.261.261,0,0,1,0-.369l10.218-10.219a.262.262,0,0,1,.37,0l4.607,4.606A.261.261,0,0,1,569.124-1548.763Zm-7.693-5.49-2.525,2.526a.262.262,0,0,1-.369,0l-2.526-2.526a.261.261,0,0,1,.185-.446h5.052A.261.261,0,0,1,561.431-1554.253Zm-4.51,4.51-4.607,4.607a.261.261,0,0,1-.369,0l-3.628-3.627a.261.261,0,0,1,0-.369l4.607-4.607a.261.261,0,0,1,.369,0l3.627,3.627A.262.262,0,0,1,556.921-1549.743Z" transform="translate(-545.524 1556.984)" fill="#fff"/>
        <ellipse id="Ellipse_1-69" data-name="Ellipse 1" cx="1.118" cy="1.118" rx="1.118" ry="1.118" transform="translate(12.079 12.849)" fill="#fff"/>
      </g>
      <g id="Group_3589-5" data-name="Group 3589" transform="translate(41.407 34.71) rotate(180)">
        <path id="Path_26-70" data-name="Path 26" d="M18.356,0H8.037A1.5,1.5,0,0,0,6.974.44L.44,6.973A1.5,1.5,0,0,0,.44,9.1L12.134,20.792a1.5,1.5,0,0,0,2.126,0L25.953,9.1a1.5,1.5,0,0,0,0-2.126L19.419.44A1.5,1.5,0,0,0,18.356,0ZM23.6,8.221,13.382,18.44a.261.261,0,0,1-.369,0L8.4,13.833a.261.261,0,0,1,0-.369L18.623,3.245a.261.261,0,0,1,.369,0L23.6,7.851A.261.261,0,0,1,23.6,8.221Zm-7.693-5.49L13.382,5.256a.261.261,0,0,1-.369,0L10.486,2.731a.261.261,0,0,1,.185-.446h5.052A.261.261,0,0,1,15.907,2.731ZM11.4,7.241,6.79,11.848a.261.261,0,0,1-.369,0L2.793,8.221a.261.261,0,0,1,0-.369L7.4,3.245a.261.261,0,0,1,.369,0L11.4,6.872A.261.261,0,0,1,11.4,7.241Z" transform="translate(0 0)" fill="#fff"/>
        <ellipse id="Ellipse_1-70" data-name="Ellipse 1" cx="1.118" cy="1.118" rx="1.118" ry="1.118" transform="translate(12.079 12.849)" fill="#fff"/>
      </g>
    </g>
    <g id="Group_3594" data-name="Group 3594" transform="translate(206.832 69.419)">
      <g id="Group_4-6" data-name="Group 4" transform="translate(29.555)">
        <path id="Path_26-71" data-name="Path 26" d="M563.88-1556.984H553.561a1.5,1.5,0,0,0-1.063.44l-6.534,6.533a1.5,1.5,0,0,0,0,2.125l11.694,11.694a1.5,1.5,0,0,0,2.125,0l11.693-11.694a1.5,1.5,0,0,0,0-2.125l-6.534-6.533A1.5,1.5,0,0,0,563.88-1556.984Zm5.244,8.22-10.218,10.219a.261.261,0,0,1-.37,0l-4.607-4.607a.261.261,0,0,1,0-.369l10.218-10.219a.262.262,0,0,1,.37,0l4.607,4.606A.261.261,0,0,1,569.124-1548.763Zm-7.693-5.49-2.525,2.526a.262.262,0,0,1-.369,0l-2.526-2.526a.261.261,0,0,1,.185-.446h5.052A.261.261,0,0,1,561.431-1554.253Zm-4.51,4.51-4.607,4.607a.261.261,0,0,1-.369,0l-3.628-3.627a.261.261,0,0,1,0-.369l4.607-4.607a.261.261,0,0,1,.369,0l3.627,3.627A.262.262,0,0,1,556.921-1549.743Z" transform="translate(-545.524 1556.984)" fill="#fff"/>
        <ellipse id="Ellipse_1-71" data-name="Ellipse 1" cx="1.118" cy="1.118" rx="1.118" ry="1.118" transform="translate(12.079 12.849)" fill="#fff"/>
      </g>
      <g id="Group_3584-6" data-name="Group 3584" transform="translate(189.18 34.71) rotate(180)">
        <path id="Path_26-72" data-name="Path 26" d="M18.356,0H8.037A1.5,1.5,0,0,0,6.974.44L.44,6.973A1.5,1.5,0,0,0,.44,9.1L12.134,20.792a1.5,1.5,0,0,0,2.126,0L25.953,9.1a1.5,1.5,0,0,0,0-2.126L19.419.44A1.5,1.5,0,0,0,18.356,0ZM23.6,8.221,13.382,18.44a.261.261,0,0,1-.369,0L8.4,13.833a.261.261,0,0,1,0-.369L18.623,3.245a.261.261,0,0,1,.369,0L23.6,7.851A.261.261,0,0,1,23.6,8.221Zm-7.693-5.49L13.382,5.256a.261.261,0,0,1-.369,0L10.486,2.731a.261.261,0,0,1,.185-.446h5.052A.261.261,0,0,1,15.907,2.731ZM11.4,7.241,6.79,11.848a.261.261,0,0,1-.369,0L2.793,8.221a.261.261,0,0,1,0-.369L7.4,3.245a.261.261,0,0,1,.369,0L11.4,6.872A.261.261,0,0,1,11.4,7.241Z" transform="translate(0 0)" fill="#fff"/>
        <ellipse id="Ellipse_1-72" data-name="Ellipse 1" cx="1.118" cy="1.118" rx="1.118" ry="1.118" transform="translate(12.079 12.849)" fill="#fff"/>
      </g>
      <g id="Group_3582-6" data-name="Group 3582" transform="translate(0)">
        <path id="Path_26-73" data-name="Path 26" d="M563.88-1556.984H553.561a1.5,1.5,0,0,0-1.063.44l-6.534,6.533a1.5,1.5,0,0,0,0,2.125l11.694,11.694a1.5,1.5,0,0,0,2.125,0l11.693-11.694a1.5,1.5,0,0,0,0-2.125l-6.534-6.533A1.5,1.5,0,0,0,563.88-1556.984Zm5.244,8.22-10.218,10.219a.261.261,0,0,1-.37,0l-4.607-4.607a.261.261,0,0,1,0-.369l10.218-10.219a.262.262,0,0,1,.37,0l4.607,4.606A.261.261,0,0,1,569.124-1548.763Zm-7.693-5.49-2.525,2.526a.262.262,0,0,1-.369,0l-2.526-2.526a.261.261,0,0,1,.185-.446h5.052A.261.261,0,0,1,561.431-1554.253Zm-4.51,4.51-4.607,4.607a.261.261,0,0,1-.369,0l-3.628-3.627a.261.261,0,0,1,0-.369l4.607-4.607a.261.261,0,0,1,.369,0l3.627,3.627A.262.262,0,0,1,556.921-1549.743Z" transform="translate(-545.524 1556.984)" fill="#fff"/>
        <ellipse id="Ellipse_1-73" data-name="Ellipse 1" cx="1.118" cy="1.118" rx="1.118" ry="1.118" transform="translate(12.079 12.849)" fill="#fff"/>
      </g>
      <g id="Group_3583-6" data-name="Group 3583" transform="translate(218.735 34.71) rotate(180)">
        <path id="Path_26-74" data-name="Path 26" d="M18.356,0H8.037A1.5,1.5,0,0,0,6.974.44L.44,6.973A1.5,1.5,0,0,0,.44,9.1L12.134,20.792a1.5,1.5,0,0,0,2.126,0L25.953,9.1a1.5,1.5,0,0,0,0-2.126L19.419.44A1.5,1.5,0,0,0,18.356,0ZM23.6,8.221,13.382,18.44a.261.261,0,0,1-.369,0L8.4,13.833a.261.261,0,0,1,0-.369L18.623,3.245a.261.261,0,0,1,.369,0L23.6,7.851A.261.261,0,0,1,23.6,8.221Zm-7.693-5.49L13.382,5.256a.261.261,0,0,1-.369,0L10.486,2.731a.261.261,0,0,1,.185-.446h5.052A.261.261,0,0,1,15.907,2.731ZM11.4,7.241,6.79,11.848a.261.261,0,0,1-.369,0L2.793,8.221a.261.261,0,0,1,0-.369L7.4,3.245a.261.261,0,0,1,.369,0L11.4,6.872A.261.261,0,0,1,11.4,7.241Z" transform="translate(0 0)" fill="#fff"/>
        <ellipse id="Ellipse_1-74" data-name="Ellipse 1" cx="1.118" cy="1.118" rx="1.118" ry="1.118" transform="translate(12.079 12.849)" fill="#fff"/>
      </g>
      <g id="Group_3577-6" data-name="Group 3577" transform="translate(59.109)">
        <path id="Path_26-75" data-name="Path 26" d="M563.88-1556.984H553.561a1.5,1.5,0,0,0-1.063.44l-6.534,6.533a1.5,1.5,0,0,0,0,2.125l11.694,11.694a1.5,1.5,0,0,0,2.125,0l11.693-11.694a1.5,1.5,0,0,0,0-2.125l-6.534-6.533A1.5,1.5,0,0,0,563.88-1556.984Zm5.244,8.22-10.218,10.219a.261.261,0,0,1-.37,0l-4.607-4.607a.261.261,0,0,1,0-.369l10.218-10.219a.262.262,0,0,1,.37,0l4.607,4.606A.261.261,0,0,1,569.124-1548.763Zm-7.693-5.49-2.525,2.526a.262.262,0,0,1-.369,0l-2.526-2.526a.261.261,0,0,1,.185-.446h5.052A.261.261,0,0,1,561.431-1554.253Zm-4.51,4.51-4.607,4.607a.261.261,0,0,1-.369,0l-3.628-3.627a.261.261,0,0,1,0-.369l4.607-4.607a.261.261,0,0,1,.369,0l3.627,3.627A.262.262,0,0,1,556.921-1549.743Z" transform="translate(-545.524 1556.984)" fill="#fff"/>
        <ellipse id="Ellipse_1-75" data-name="Ellipse 1" cx="1.118" cy="1.118" rx="1.118" ry="1.118" transform="translate(12.079 12.849)" fill="#fff"/>
      </g>
      <g id="Group_3585-6" data-name="Group 3585" transform="translate(159.625 34.71) rotate(180)">
        <path id="Path_26-76" data-name="Path 26" d="M18.356,0H8.037A1.5,1.5,0,0,0,6.974.44L.44,6.973A1.5,1.5,0,0,0,.44,9.1L12.134,20.792a1.5,1.5,0,0,0,2.126,0L25.953,9.1a1.5,1.5,0,0,0,0-2.126L19.419.44A1.5,1.5,0,0,0,18.356,0ZM23.6,8.221,13.382,18.44a.261.261,0,0,1-.369,0L8.4,13.833a.261.261,0,0,1,0-.369L18.623,3.245a.261.261,0,0,1,.369,0L23.6,7.851A.261.261,0,0,1,23.6,8.221Zm-7.693-5.49L13.382,5.256a.261.261,0,0,1-.369,0L10.486,2.731a.261.261,0,0,1,.185-.446h5.052A.261.261,0,0,1,15.907,2.731ZM11.4,7.241,6.79,11.848a.261.261,0,0,1-.369,0L2.793,8.221a.261.261,0,0,1,0-.369L7.4,3.245a.261.261,0,0,1,.369,0L11.4,6.872A.261.261,0,0,1,11.4,7.241Z" transform="translate(0 0)" fill="#fff"/>
        <ellipse id="Ellipse_1-76" data-name="Ellipse 1" cx="1.118" cy="1.118" rx="1.118" ry="1.118" transform="translate(12.079 12.849)" fill="#fff"/>
      </g>
      <g id="Group_3578-6" data-name="Group 3578" transform="translate(88.664)">
        <path id="Path_26-77" data-name="Path 26" d="M563.88-1556.984H553.561a1.5,1.5,0,0,0-1.063.44l-6.534,6.533a1.5,1.5,0,0,0,0,2.125l11.694,11.694a1.5,1.5,0,0,0,2.125,0l11.693-11.694a1.5,1.5,0,0,0,0-2.125l-6.534-6.533A1.5,1.5,0,0,0,563.88-1556.984Zm5.244,8.22-10.218,10.219a.261.261,0,0,1-.37,0l-4.607-4.607a.261.261,0,0,1,0-.369l10.218-10.219a.262.262,0,0,1,.37,0l4.607,4.606A.261.261,0,0,1,569.124-1548.763Zm-7.693-5.49-2.525,2.526a.262.262,0,0,1-.369,0l-2.526-2.526a.261.261,0,0,1,.185-.446h5.052A.261.261,0,0,1,561.431-1554.253Zm-4.51,4.51-4.607,4.607a.261.261,0,0,1-.369,0l-3.628-3.627a.261.261,0,0,1,0-.369l4.607-4.607a.261.261,0,0,1,.369,0l3.627,3.627A.262.262,0,0,1,556.921-1549.743Z" transform="translate(-545.524 1556.984)" fill="#fff"/>
        <ellipse id="Ellipse_1-77" data-name="Ellipse 1" cx="1.118" cy="1.118" rx="1.118" ry="1.118" transform="translate(12.079 12.849)" fill="#fff"/>
      </g>
      <g id="Group_3586-6" data-name="Group 3586" transform="translate(130.071 34.71) rotate(180)">
        <path id="Path_26-78" data-name="Path 26" d="M18.356,0H8.037A1.5,1.5,0,0,0,6.974.44L.44,6.973A1.5,1.5,0,0,0,.44,9.1L12.134,20.792a1.5,1.5,0,0,0,2.126,0L25.953,9.1a1.5,1.5,0,0,0,0-2.126L19.419.44A1.5,1.5,0,0,0,18.356,0ZM23.6,8.221,13.382,18.44a.261.261,0,0,1-.369,0L8.4,13.833a.261.261,0,0,1,0-.369L18.623,3.245a.261.261,0,0,1,.369,0L23.6,7.851A.261.261,0,0,1,23.6,8.221Zm-7.693-5.49L13.382,5.256a.261.261,0,0,1-.369,0L10.486,2.731a.261.261,0,0,1,.185-.446h5.052A.261.261,0,0,1,15.907,2.731ZM11.4,7.241,6.79,11.848a.261.261,0,0,1-.369,0L2.793,8.221a.261.261,0,0,1,0-.369L7.4,3.245a.261.261,0,0,1,.369,0L11.4,6.872A.261.261,0,0,1,11.4,7.241Z" transform="translate(0 0)" fill="#fff"/>
        <ellipse id="Ellipse_1-78" data-name="Ellipse 1" cx="1.118" cy="1.118" rx="1.118" ry="1.118" transform="translate(12.079 12.849)" fill="#fff"/>
      </g>
      <g id="Group_3579-6" data-name="Group 3579" transform="translate(118.219)">
        <path id="Path_26-79" data-name="Path 26" d="M563.88-1556.984H553.561a1.5,1.5,0,0,0-1.063.44l-6.534,6.533a1.5,1.5,0,0,0,0,2.125l11.694,11.694a1.5,1.5,0,0,0,2.125,0l11.693-11.694a1.5,1.5,0,0,0,0-2.125l-6.534-6.533A1.5,1.5,0,0,0,563.88-1556.984Zm5.244,8.22-10.218,10.219a.261.261,0,0,1-.37,0l-4.607-4.607a.261.261,0,0,1,0-.369l10.218-10.219a.262.262,0,0,1,.37,0l4.607,4.606A.261.261,0,0,1,569.124-1548.763Zm-7.693-5.49-2.525,2.526a.262.262,0,0,1-.369,0l-2.526-2.526a.261.261,0,0,1,.185-.446h5.052A.261.261,0,0,1,561.431-1554.253Zm-4.51,4.51-4.607,4.607a.261.261,0,0,1-.369,0l-3.628-3.627a.261.261,0,0,1,0-.369l4.607-4.607a.261.261,0,0,1,.369,0l3.627,3.627A.262.262,0,0,1,556.921-1549.743Z" transform="translate(-545.524 1556.984)" fill="#fff"/>
        <ellipse id="Ellipse_1-79" data-name="Ellipse 1" cx="1.118" cy="1.118" rx="1.118" ry="1.118" transform="translate(12.079 12.849)" fill="#fff"/>
      </g>
      <g id="Group_3587-6" data-name="Group 3587" transform="translate(100.516 34.71) rotate(180)">
        <path id="Path_26-80" data-name="Path 26" d="M18.356,0H8.037A1.5,1.5,0,0,0,6.974.44L.44,6.973A1.5,1.5,0,0,0,.44,9.1L12.134,20.792a1.5,1.5,0,0,0,2.126,0L25.953,9.1a1.5,1.5,0,0,0,0-2.126L19.419.44A1.5,1.5,0,0,0,18.356,0ZM23.6,8.221,13.382,18.44a.261.261,0,0,1-.369,0L8.4,13.833a.261.261,0,0,1,0-.369L18.623,3.245a.261.261,0,0,1,.369,0L23.6,7.851A.261.261,0,0,1,23.6,8.221Zm-7.693-5.49L13.382,5.256a.261.261,0,0,1-.369,0L10.486,2.731a.261.261,0,0,1,.185-.446h5.052A.261.261,0,0,1,15.907,2.731ZM11.4,7.241,6.79,11.848a.261.261,0,0,1-.369,0L2.793,8.221a.261.261,0,0,1,0-.369L7.4,3.245a.261.261,0,0,1,.369,0L11.4,6.872A.261.261,0,0,1,11.4,7.241Z" transform="translate(0 0)" fill="#fff"/>
        <ellipse id="Ellipse_1-80" data-name="Ellipse 1" cx="1.118" cy="1.118" rx="1.118" ry="1.118" transform="translate(12.079 12.849)" fill="#fff"/>
      </g>
      <g id="Group_3580-6" data-name="Group 3580" transform="translate(147.773)">
        <path id="Path_26-81" data-name="Path 26" d="M563.88-1556.984H553.561a1.5,1.5,0,0,0-1.063.44l-6.534,6.533a1.5,1.5,0,0,0,0,2.125l11.694,11.694a1.5,1.5,0,0,0,2.125,0l11.693-11.694a1.5,1.5,0,0,0,0-2.125l-6.534-6.533A1.5,1.5,0,0,0,563.88-1556.984Zm5.244,8.22-10.218,10.219a.261.261,0,0,1-.37,0l-4.607-4.607a.261.261,0,0,1,0-.369l10.218-10.219a.262.262,0,0,1,.37,0l4.607,4.606A.261.261,0,0,1,569.124-1548.763Zm-7.693-5.49-2.525,2.526a.262.262,0,0,1-.369,0l-2.526-2.526a.261.261,0,0,1,.185-.446h5.052A.261.261,0,0,1,561.431-1554.253Zm-4.51,4.51-4.607,4.607a.261.261,0,0,1-.369,0l-3.628-3.627a.261.261,0,0,1,0-.369l4.607-4.607a.261.261,0,0,1,.369,0l3.627,3.627A.262.262,0,0,1,556.921-1549.743Z" transform="translate(-545.524 1556.984)" fill="#fff"/>
        <ellipse id="Ellipse_1-81" data-name="Ellipse 1" cx="1.118" cy="1.118" rx="1.118" ry="1.118" transform="translate(12.079 12.849)" fill="#fff"/>
      </g>
      <g id="Group_3588-6" data-name="Group 3588" transform="translate(70.961 34.71) rotate(180)">
        <path id="Path_26-82" data-name="Path 26" d="M18.356,0H8.037A1.5,1.5,0,0,0,6.974.44L.44,6.973A1.5,1.5,0,0,0,.44,9.1L12.134,20.792a1.5,1.5,0,0,0,2.126,0L25.953,9.1a1.5,1.5,0,0,0,0-2.126L19.419.44A1.5,1.5,0,0,0,18.356,0ZM23.6,8.221,13.382,18.44a.261.261,0,0,1-.369,0L8.4,13.833a.261.261,0,0,1,0-.369L18.623,3.245a.261.261,0,0,1,.369,0L23.6,7.851A.261.261,0,0,1,23.6,8.221Zm-7.693-5.49L13.382,5.256a.261.261,0,0,1-.369,0L10.486,2.731a.261.261,0,0,1,.185-.446h5.052A.261.261,0,0,1,15.907,2.731ZM11.4,7.241,6.79,11.848a.261.261,0,0,1-.369,0L2.793,8.221a.261.261,0,0,1,0-.369L7.4,3.245a.261.261,0,0,1,.369,0L11.4,6.872A.261.261,0,0,1,11.4,7.241Z" transform="translate(0 0)" fill="#fff"/>
        <ellipse id="Ellipse_1-82" data-name="Ellipse 1" cx="1.118" cy="1.118" rx="1.118" ry="1.118" transform="translate(12.079 12.849)" fill="#fff"/>
      </g>
      <g id="Group_3581-6" data-name="Group 3581" transform="translate(177.328)">
        <path id="Path_26-83" data-name="Path 26" d="M563.88-1556.984H553.561a1.5,1.5,0,0,0-1.063.44l-6.534,6.533a1.5,1.5,0,0,0,0,2.125l11.694,11.694a1.5,1.5,0,0,0,2.125,0l11.693-11.694a1.5,1.5,0,0,0,0-2.125l-6.534-6.533A1.5,1.5,0,0,0,563.88-1556.984Zm5.244,8.22-10.218,10.219a.261.261,0,0,1-.37,0l-4.607-4.607a.261.261,0,0,1,0-.369l10.218-10.219a.262.262,0,0,1,.37,0l4.607,4.606A.261.261,0,0,1,569.124-1548.763Zm-7.693-5.49-2.525,2.526a.262.262,0,0,1-.369,0l-2.526-2.526a.261.261,0,0,1,.185-.446h5.052A.261.261,0,0,1,561.431-1554.253Zm-4.51,4.51-4.607,4.607a.261.261,0,0,1-.369,0l-3.628-3.627a.261.261,0,0,1,0-.369l4.607-4.607a.261.261,0,0,1,.369,0l3.627,3.627A.262.262,0,0,1,556.921-1549.743Z" transform="translate(-545.524 1556.984)" fill="#fff"/>
        <ellipse id="Ellipse_1-83" data-name="Ellipse 1" cx="1.118" cy="1.118" rx="1.118" ry="1.118" transform="translate(12.079 12.849)" fill="#fff"/>
      </g>
      <g id="Group_3589-6" data-name="Group 3589" transform="translate(41.407 34.71) rotate(180)">
        <path id="Path_26-84" data-name="Path 26" d="M18.356,0H8.037A1.5,1.5,0,0,0,6.974.44L.44,6.973A1.5,1.5,0,0,0,.44,9.1L12.134,20.792a1.5,1.5,0,0,0,2.126,0L25.953,9.1a1.5,1.5,0,0,0,0-2.126L19.419.44A1.5,1.5,0,0,0,18.356,0ZM23.6,8.221,13.382,18.44a.261.261,0,0,1-.369,0L8.4,13.833a.261.261,0,0,1,0-.369L18.623,3.245a.261.261,0,0,1,.369,0L23.6,7.851A.261.261,0,0,1,23.6,8.221Zm-7.693-5.49L13.382,5.256a.261.261,0,0,1-.369,0L10.486,2.731a.261.261,0,0,1,.185-.446h5.052A.261.261,0,0,1,15.907,2.731ZM11.4,7.241,6.79,11.848a.261.261,0,0,1-.369,0L2.793,8.221a.261.261,0,0,1,0-.369L7.4,3.245a.261.261,0,0,1,.369,0L11.4,6.872A.261.261,0,0,1,11.4,7.241Z" transform="translate(0 0)" fill="#fff"/>
        <ellipse id="Ellipse_1-84" data-name="Ellipse 1" cx="1.118" cy="1.118" rx="1.118" ry="1.118" transform="translate(12.079 12.849)" fill="#fff"/>
      </g>
    </g>
  </g>
</svg>
